<?xml version="1.0" encoding="utf-8"?>
<!-- Generator: Adobe Illustrator 24.1.2, SVG Export Plug-In . SVG Version: 6.00 Build 0)  -->
<svg version="1.1" id="work" xmlns="http://www.w3.org/2000/svg" xmlns:xlink="http://www.w3.org/1999/xlink" x="0px" y="0px"
	 viewBox="0 0 2500 2500" style="enable-background:new 0 0 2500 2500;" xml:space="preserve">
<style type="text/css">
	.st0{fill-rule:evenodd;clip-rule:evenodd;fill:#FEA7A8;}
	.st1{fill:none;stroke:#09072B;stroke-width:2;}
	.st2{fill-rule:evenodd;clip-rule:evenodd;fill:#261A5E;}
	.st3{fill:none;stroke:#FFFFFF;stroke-width:2;}
	.st4{fill-rule:evenodd;clip-rule:evenodd;fill:#0F0B47;}
	.st5{opacity:0.3;fill:none;stroke:#FFFFFF;stroke-width:2;enable-background:new    ;}
	.st6{fill-rule:evenodd;clip-rule:evenodd;fill:#3D9BEF;}
	.st7{opacity:0.1;fill-rule:evenodd;clip-rule:evenodd;fill:#0F0B47;enable-background:new    ;}
	.st8{fill-rule:evenodd;clip-rule:evenodd;fill:#E19394;}
	.st9{fill-rule:evenodd;clip-rule:evenodd;fill:#372A7F;}
	.st10{fill-rule:evenodd;clip-rule:evenodd;fill:#54479C;}
	.st11{fill:none;stroke:#0F0B47;stroke-width:2;}
	.st12{fill:none;stroke:#372A7F;stroke-width:2;}
	.st13{fill-rule:evenodd;clip-rule:evenodd;fill:#FFFFFF;}
	.st14{fill:#FFD884;}
	.st15{fill:#FFBF41;}
	.st16{fill:#58B8C0;}
	.st17{fill:#EBD9EC;}
	.st18{fill-rule:evenodd;clip-rule:evenodd;fill:#B3DBC9;}
	.st19{fill-rule:evenodd;clip-rule:evenodd;fill:#BCE6D3;}
	.st20{fill-rule:evenodd;clip-rule:evenodd;fill:#F69800;}
	.st21{opacity:0.5;fill:none;stroke:#FFFFFF;stroke-width:2;enable-background:new    ;}
	.st22{opacity:0.2;fill-rule:evenodd;clip-rule:evenodd;fill:#261A5E;enable-background:new    ;}
	.st23{fill-rule:evenodd;clip-rule:evenodd;fill:#003E8C;}
	.st24{fill-rule:evenodd;clip-rule:evenodd;fill:#08234A;}
	.st25{fill-rule:evenodd;clip-rule:evenodd;fill:#FFFCF8;}
	.st26{fill-rule:evenodd;clip-rule:evenodd;fill:#DBD8FF;}
	.st27{fill-rule:evenodd;clip-rule:evenodd;fill:#C2C0E7;}
	.st28{fill-rule:evenodd;clip-rule:evenodd;fill:#3F38A2;}
	.st29{fill-rule:evenodd;clip-rule:evenodd;fill:#363082;}
	.st30{fill:none;stroke:#FFFFFF;stroke-width:2;stroke-linecap:round;}
	.st31{fill:none;stroke:#DBD8FF;stroke-width:2;stroke-linecap:round;}
	.st32{fill-rule:evenodd;clip-rule:evenodd;fill:#003E8C;stroke:#0F0B47;stroke-width:2;}
	.st33{fill-rule:evenodd;clip-rule:evenodd;fill:#4B55F3;}
	.st34{fill-rule:evenodd;clip-rule:evenodd;fill:#181364;}
	.st35{fill-rule:evenodd;clip-rule:evenodd;fill:#06041A;}
	.st36{opacity:0.6;fill:none;stroke:#FFFFFF;stroke-width:2;enable-background:new    ;}
	.st37{fill-rule:evenodd;clip-rule:evenodd;fill:#FFD422;}
	.st38{fill-rule:evenodd;clip-rule:evenodd;fill:#FFFFFF;stroke:#0F0B47;stroke-width:2;}
	.st39{fill-rule:evenodd;clip-rule:evenodd;fill:#FF0021;}
	.st40{fill:none;stroke:#0F0B47;stroke-width:2;stroke-linecap:round;}
	.st41{fill-rule:evenodd;clip-rule:evenodd;fill:#FEA7A8;stroke:#0F0B47;stroke-width:2;}
	.st42{fill-rule:evenodd;clip-rule:evenodd;fill:#EA0422;}
	.st43{fill-rule:evenodd;clip-rule:evenodd;fill:#0C0936;}
	.st44{fill-rule:evenodd;clip-rule:evenodd;fill:#F3A3A4;}
	.st45{fill-rule:evenodd;clip-rule:evenodd;fill:#0F0B47;stroke:#FFFFFF;stroke-width:2;}
	.st46{fill-rule:evenodd;clip-rule:evenodd;fill:#F7A4A5;}
	.st47{opacity:0.4;fill:none;stroke:#FFFFFF;stroke-width:2;enable-background:new    ;}
	.st48{fill-rule:evenodd;clip-rule:evenodd;fill:#0E8B80;}
	.st49{fill-rule:evenodd;clip-rule:evenodd;fill:#BF4A24;}
	.st50{fill:none;stroke:#FFFCF8;stroke-width:2;}
	.st51{fill:none;stroke:#BF4A24;stroke-width:2;}
	.st52{fill-rule:evenodd;clip-rule:evenodd;fill:#FF77A5;}
	.st53{fill-rule:evenodd;clip-rule:evenodd;fill:#FFC84B;}
	.st54{fill-rule:evenodd;clip-rule:evenodd;fill:#ECB947;}
	.st55{fill-rule:evenodd;clip-rule:evenodd;fill:#0C8076;}
	.st56{fill-rule:evenodd;clip-rule:evenodd;fill:#F9F9F9;}
	.st57{fill:none;stroke:#F9F9F9;stroke-width:2;}
	.st58{fill-rule:evenodd;clip-rule:evenodd;fill:#FF622D;}
	.st59{fill-rule:evenodd;clip-rule:evenodd;fill:#DB4F20;}
	.st60{fill-rule:evenodd;clip-rule:evenodd;fill:#006D85;}
	.st61{fill-rule:evenodd;clip-rule:evenodd;fill:#0094B4;}
	.st62{fill-rule:evenodd;clip-rule:evenodd;fill:#733014;}
	.st63{fill:none;stroke:#733014;stroke-width:2;}
	.st64{opacity:0.1;fill-rule:evenodd;clip-rule:evenodd;enable-background:new    ;}
	.st65{fill-rule:evenodd;clip-rule:evenodd;}
	.st66{fill:none;stroke:#000000;stroke-width:2;}
	.st67{fill-rule:evenodd;clip-rule:evenodd;fill:#4267FF;}
	.st68{fill-rule:evenodd;clip-rule:evenodd;fill:#E19495;}
	.st69{fill-rule:evenodd;clip-rule:evenodd;fill:#202746;}
	.st70{fill-rule:evenodd;clip-rule:evenodd;fill:#2945BB;}
	.st71{fill-rule:evenodd;clip-rule:evenodd;fill:#774033;}
	.st72{fill:none;stroke:#774033;stroke-width:2;}
	.st73{fill-rule:evenodd;clip-rule:evenodd;fill:#EEA013;}
	.st74{fill-rule:evenodd;clip-rule:evenodd;fill:#DB9311;}
	.st75{fill-rule:evenodd;clip-rule:evenodd;fill:#3E60EB;}
	.st76{opacity:0.1;fill-rule:evenodd;clip-rule:evenodd;fill:#FFFFFF;enable-background:new    ;}
	.st77{fill:none;stroke:#261A5E;stroke-width:2;}
	.st78{fill-rule:evenodd;clip-rule:evenodd;fill:#FF5D5C;}
	.st79{fill-rule:evenodd;clip-rule:evenodd;fill:#D95150;}
	.st80{fill-rule:evenodd;clip-rule:evenodd;fill:#03CEFA;}
	.st81{fill-rule:evenodd;clip-rule:evenodd;fill:#03BCE4;}
	.st82{fill-rule:evenodd;clip-rule:evenodd;fill:#402E92;}
	.st83{fill-rule:evenodd;clip-rule:evenodd;fill:#DC678F;}
	.st84{fill-rule:evenodd;clip-rule:evenodd;fill:#98C3AF;}
	.st85{fill-rule:evenodd;clip-rule:evenodd;fill:#19D9EB;}
	.st86{fill-rule:evenodd;clip-rule:evenodd;fill:#13C3D3;}
	.st87{fill-rule:evenodd;clip-rule:evenodd;fill:#10A6B4;}
	.st88{fill-rule:evenodd;clip-rule:evenodd;fill:#FEDD00;}
	.st89{fill-rule:evenodd;clip-rule:evenodd;fill:#358BD7;}
	.st90{fill-rule:evenodd;clip-rule:evenodd;fill:#017F5D;}
	.st91{opacity:0.2;fill:none;stroke:#FFFFFF;stroke-width:2;enable-background:new    ;}
	.st92{fill-rule:evenodd;clip-rule:evenodd;fill:#00976F;}
	.st93{fill-rule:evenodd;clip-rule:evenodd;fill:#FF2200;}
	.st94{fill-rule:evenodd;clip-rule:evenodd;fill:#EE2304;}
	.st95{opacity:0.1;fill-rule:evenodd;clip-rule:evenodd;fill:#002C46;enable-background:new    ;}
	.st96{fill-rule:evenodd;clip-rule:evenodd;fill:#FF81C3;}
	.st97{opacity:0.3;fill-rule:evenodd;clip-rule:evenodd;fill:#BD461E;enable-background:new    ;}
	.st98{fill-rule:evenodd;clip-rule:evenodd;fill:#2F170B;}
	.st99{fill-rule:evenodd;clip-rule:evenodd;fill:#FFC09F;}
	.st100{opacity:0.2;fill-rule:evenodd;clip-rule:evenodd;fill:#6A3D25;enable-background:new    ;}
	.st101{fill-rule:evenodd;clip-rule:evenodd;fill:#6A3D25;}
	.st102{fill-rule:evenodd;clip-rule:evenodd;fill:#284BF2;}
	.st103{fill-rule:evenodd;clip-rule:evenodd;fill:#EB5D2D;}
	.st104{fill-rule:evenodd;clip-rule:evenodd;fill:#FFB34D;}
	.st105{opacity:0.2;fill-rule:evenodd;clip-rule:evenodd;fill:#2F170B;enable-background:new    ;}
	.st106{opacity:0.3;fill-rule:evenodd;clip-rule:evenodd;fill:#2F170B;enable-background:new    ;}
	.st107{fill:none;stroke:#2F170B;stroke-width:2;}
	.st108{fill-rule:evenodd;clip-rule:evenodd;fill:#FF5A59;}
	.st109{fill-rule:evenodd;clip-rule:evenodd;fill:#E94E4D;}
</style>
<g id="_x31_---girl-walk-with-a-drink">
	<g transform="translate(170.000000, 141.000000)">
		<g id="Group_7_" transform="translate(166.531130, 0.000000)">
			<path id="Path-47" class="st4" d="M899.1,244.1h34.7c-17.6-58.9-54.3-84.4-110.2-76.4c-83.8,11.9-78.7,75.2-78.7,129.7
				s-87.2,67.8-52.5,146.9c14.9,34.1-24.1,53-34.4,90.4c-12.5,45.4,3.9,104,86.9,115.6c24.8,3.5,63.3-87.8,115.4-273.9L899.1,244.1z
				"/>
			<circle id="Oval_13_" class="st4" cx="736.6" cy="171.6" r="32.8"/>
			<path id="Path-45" class="st0" d="M918.3,243.9l3.6,83c0.3,6.9-2.4,13.7-7.3,18.6c-5,4.9-11.7,7.6-18.7,7.6h-17.7l0,0v62.2h-67.3
				c-3.7-14.4,1.2-31.7,14.4-51.9c13.3-20.2,12-40.9-3.9-62c-15.6-5.1-23.3-13.1-23.3-24.2c0-16.6,21-18.5,30.3-5.3
				c12.3,6.5,22.2,2.2,29.7-13l0.7-5.1c0.8-5.7,5.7-9.9,11.5-9.9h12.9l0,0v-18.8l15.1,18.8H918.3z"/>
			<path id="Path_46_" class="st8" d="M855.6,343.1c4.8,6.4,12.3,9.8,22.5,10.1l0,36.9L855.6,343.1z"/>
			<path id="Path-46" class="st11" d="M820.6,274.8c-6.8-4.9-11.5-4.7-14,0.6c-2.5,5.3,1,10.8,10.4,16.4"/>
			<circle id="Oval_12_" class="st3" cx="823.6" cy="320.4" r="21.3"/>
			<path id="Path-2_3_" class="st13" d="M878.1,317.8h29c-3.6,8.5-8.4,12.8-14.5,12.8C886.5,330.6,881.7,326.3,878.1,317.8z"/>
			<g id="Group-3_1_" transform="translate(52.102102, 29.809794)">
				<path id="Path-48" class="st11" d="M843.4,251.8l12.3,16.5c1.1,1.5,1.7,3.3,1.7,5.2c0,1.6-1.3,2.9-2.9,2.9h-11.1l0,0"/>
				<circle id="Oval_11_" class="st4" cx="829.4" cy="248.1" r="3.9"/>
				<path id="Rectangle_7_" class="st4" d="M854.4,226.1l23.3,4.5c1.9,0.4,3.2,2.2,2.8,4.2c0,0,0,0,0,0.1c-0.4,2-2.3,3.2-4.3,2.8
					l-23.3-4.5c-1.9-0.4-3.2-2.2-2.8-4.2c0,0,0,0,0-0.1C850.5,227,852.4,225.7,854.4,226.1z"/>
				<path id="Rectangle-Copy_1_" class="st4" d="M833.7,226.1l-23.3,4.5c-1.9,0.4-3.2,2.2-2.8,4.2c0,0,0,0,0,0.1
					c0.4,2,2.3,3.2,4.3,2.8l23.3-4.5c1.9-0.4,3.2-2.2,2.8-4.2c0,0,0,0,0-0.1C837.5,227,835.6,225.7,833.7,226.1z"/>
				<circle id="Oval-Copy_3_" class="st4" cx="856.5" cy="248.1" r="3.9"/>
			</g>
		</g>
		<g id="Group-6_2_" transform="translate(238.397184, 38.000000)">
			<path id="Path-51" class="st0" d="M883.6,474.9l144.8,180.6l94.5-188l47.4,23.2l-87,245.9c-6.3,17.8-21.6,31-40.1,34.7
				c-18.7,3.7-38-2.2-51.4-15.8L860.1,622.4l0,0L883.6,474.9z"/>
			<path id="Path-53" class="st0" d="M1092.2,408.1l-14.8-10.3c-3.7-2.6-8.8-1.7-11.3,2c-0.9,1.2-1.4,2.7-1.4,4.2
				c-0.5,9.3,2.7,18.4,9,25.3l22.8,25l0,0L1092.2,408.1z"/>
			<g id="Group-2_3_" transform="translate(49.962909, 0.000000)">
				<path id="Path-4_3_" class="st40" d="M1005.1,247.7l42.9,12.2c5.6,1.6,10.7,4.8,14.5,9.3c3.9,4.5,6.8,9.8,8.5,15.4l27.2,88l0,0"
					/>
				<path id="Rectangle_6_" class="st85" d="M1030.2,355.8H1150v15.8l-14.9,174.2c-0.3,4-3.7,7.1-7.7,7.1h-74.7
					c-4,0-7.4-3.1-7.7-7.1l-14.9-174.2l0,0V355.8z"/>
				<path id="Path_45_" class="st86" d="M1150,357.7l0,13.9l-14.9,174.2c-0.3,4-3.7,7.1-7.7,7.1h-74.7c-4,0-7.4-3.1-7.7-7.1l-6-70.3
					c6.5-8,14.3-14.8,23.5-20.1l1.9-1.1c39.8-22.1,59.1-53.7,58-94.8l-0.1-1.8H1150z"/>
				<path id="Rectangle-Copy-2_2_" class="st85" d="M1065,328.8h50.2c10.7,0,19.3,8.7,19.3,19.3l0,0l0,0h-88.9
					C1045.7,337.4,1054.3,328.8,1065,328.8z"/>
				<path id="Rectangle_5_" class="st87" d="M1030.2,344.2H1150c2.1,0,3.9,1.7,3.9,3.9v11.6c0,2.1-1.7,3.9-3.9,3.9h-119.8
					c-2.1,0-3.9-1.7-3.9-3.9v-11.6C1026.3,345.9,1028.1,344.2,1030.2,344.2z"/>
				<polygon id="Path-52" class="st88" points="1030.2,406.3 1150,406.3 1144,476.3 1036.2,476.3 				"/>
			</g>
			<path id="Path-54" class="st0" d="M1199.9,428.1l-63.1-5.4c-5.4-0.5-10.2,3.5-10.8,8.9c-0.6,5.4,3.2,10.2,8.6,10.8l61.5,7.2l0,0
				h-66.6c-5.7,0-10.3,4.4-10.6,10.1c-0.3,5.7,3.8,10.6,9.5,11.3l61.4,7.4l0,0l-52.9,4c-4.6,0.3-8.2,4.2-8.2,8.8
				c0,4.6,3.6,8.3,8.2,8.6l49.5,2.2l0,0l-35.7,2.4c-4,0.3-7,3.6-7,7.5c0,4.1,2.9,7.7,6.9,8.6l21.6,4.7c8.9,2,18.2,1.4,26.9-1.6
				l1.6-0.6c7.5-2.6,13.8-7.8,17.8-14.7c4.1-7,6.3-14.9,6.6-22.9l0.5-13c0.6-15.8-6.8-30.8-19.5-40.1L1199.9,428.1L1199.9,428.1z"/>
			<line id="Path-3_3_" class="st11" x1="1030.1" y1="652.6" x2="1026.4" y2="682.6"/>
		</g>
		<g id="Group-8_1_" transform="translate(0.000000, 152.821116)">
			<path id="Path-56" class="st4" d="M1406.1,1744.3c-9.3,18.5,1.1,25.2,31.1,20.3c45-7.4,269.9-94.5,219-121
				C1622.3,1625.8,1538.9,1659.4,1406.1,1744.3z"/>
			<path id="Path-57" class="st4" d="M386.3,1420.2c-12.4-2.8-16.5,2.6-12.4,16c2.6,8.6,26.3,54.7,57.3,101.3
				c41.6,62.7,93.6,125,99.1,86.3C536.7,1578.7,488.7,1510.9,386.3,1420.2z"/>
			<g id="Group-4_5_" transform="translate(328.940313, 272.418162)">
				<polygon id="Path-60_3_" class="st0" points="1119.5,1430.1 1173.9,1542 1298.8,1477.3 1241.4,1357.8 				"/>
				<path id="Path-58_3_" class="st4" d="M1145.5,1498.9l149.8-66.1c3.5-1.6,7.7-0.3,9.7,3.1l13.1,21.5c10,16.5,29.1,25.4,48.2,22.4
					l200.4-31.3c16.2-2.5,32.1,5.8,39.2,20.5c6.3,12.8,1,28.3-11.9,34.6c-0.5,0.2-1,0.5-1.5,0.7l-341.4,141.6
					c-25.6,10.6-55-1.5-65.6-27.2c-0.1-0.2-0.1-0.3-0.2-0.5l-43.9-109.3C1139.9,1505,1141.7,1500.6,1145.5,1498.9z"/>
				<path id="Path-59_3_" class="st3" d="M1200.5,1473.8l16.7,35.5c8.5,18.2,30,26.4,48.5,18.5c18.4-7.9,27.1-29,19.4-47.5
					l-15.2-36.7l0,0"/>
			</g>
			
				<g id="Group-4-Copy_1_" transform="translate(56.000000, 291.680634) rotate(75.000000) translate(-56.000000, -291.680634) translate(-9.000000, 251.680634)">
				<polygon id="Path-60_2_" class="st0" points="1265.1,-1.9 1319.5,110 1444.4,45.3 1387,-74.2 				"/>
				<path id="Path-58_2_" class="st4" d="M1291.1,66.9L1441,0.9c3.5-1.6,7.7-0.3,9.7,3.1l13.1,21.5c10,16.5,29.1,25.4,48.2,22.4
					l200.4-31.3c16.2-2.5,32.1,5.8,39.2,20.5c6.3,12.8,1,28.3-11.9,34.6c-0.5,0.2-1,0.5-1.5,0.7l-341.4,141.6
					c-25.6,10.6-55-1.5-65.6-27.2c-0.1-0.2-0.1-0.3-0.2-0.5l-43.9-109.3C1285.5,73,1287.3,68.6,1291.1,66.9z"/>
				<path id="Path-59_2_" class="st3" d="M1346.1,41.8l16.7,35.5c8.5,18.2,30,26.4,48.5,18.5c18.4-7.9,27.1-29,19.4-47.5l-15.2-36.7
					l0,0"/>
			</g>
			<g id="Group-7_2_" transform="translate(51.955970, 0.000000)">
				<path id="Path-55" class="st33" d="M861.7,618.4c-24.4,47.9-39.7,98-45.7,150.1c-125.3,244.7-288.6,461.4-489.9,650.3
					c56.6,100.3,106.6,171.5,150,213.5c279.5-236,462.6-451.8,549.3-647.5c183.2,438.7,292,696.2,326.5,772.2
					c92.8-61.6,178.9-97.8,258.3-108.6c-224.1-592.5-382.3-949.9-474.7-1072.1L861.7,618.4z"/>
				<path id="Path_44_" class="st95" d="M1135.5,618.4l89.7,843l-61.8-146.9c-25.6-61-53.7-128.1-84.2-201.1l-53.5-128.1l2.3-5.9
					c33.3-87.2,68.8-205.8,106.4-355.9L1135.5,618.4z"/>
				<path id="Path-Copy_1_" class="st4" d="M1135.5,618.4l-90.1,412.9l-19.8-46l2.3-5.9c33.3-87.2,68.8-205.8,106.4-355.9
					L1135.5,618.4z"/>
				<path id="Path-62" class="st3" d="M977.5,610.2c-16.3,61.1-52.3,100.4-108,117.9"/>
			</g>
		</g>
		<path id="Path-49" class="st96" d="M979.7,385.2h24.3c11,0,21.9,1.9,32.3,5.6c10.2,3.7,19.2,10.2,25.9,18.7l48,61.4l0,0
			c29.9,13,42.8,49.6,38.7,109.6c0,18.8,2.9,37.6,8.7,55.5l29.9,93.2l0,0c-36.6,22.5-81.8,36.5-135.5,42c-53.7,5.5-100,5.5-139,0
			c8.2-62.9,11-112.3,8.5-148c-2.5-35.7-8.4-78-17.8-127l-16.1-14.9l27.4-33.5c8.1-9.9,18.4-17.8,30-23.1l9.9-4.5
			c5.1-2.3,10.7-3.5,16.3-3.5c4.7,0,8.5-3.8,8.5-8.5V385.2L979.7,385.2z"/>
		<path id="Path_43_" class="st4" d="M965.8,546.2l55.1,44.4l38.5-42.9l-37.4,65.4l-24.6-20.3L920,704.5l0.5-6.8
			c2.1-29.2,2.4-54,0.9-74.3c-1.5-20.8-4.1-43.8-7.9-69L965.8,546.2z"/>
		
			<g id="Group-5_3_" transform="translate(95.860094, 280.500000) rotate(43.000000) translate(-95.860094, -280.500000) translate(37.360094, 211.000000)">
			<g id="Group_6_" transform="translate(-0.000000, -0.000000)">
				<path id="Rectangle_3_" class="st11" d="M1028.2,185.7c-34.4,0-65.5,13.9-88.1,36.5s-36.5,53.7-36.5,88.1l0,156.2l249.1,0
					l0-156.2c0-34.4-13.9-65.5-36.5-88.1C1093.7,199.7,1062.6,185.7,1028.2,185.7z"/>
				<path id="Rectangle_4_" class="st58" d="M808.3,323.7l448.2,0l0,266.3c0,70.4-57.1,127.5-127.5,127.5l-193.2,0
					c-70.4,0-127.5-57.1-127.5-127.5L808.3,323.7L808.3,323.7z"/>
				<path id="Path_42_" class="st97" d="M1256.5,323.7l0,266.3c0,70.4-57.1,127.5-127.5,127.5l-193.2,0
					c-70.4,0-127.5-57.1-127.5-127.5l0-2.7c51.6-20.9,134.8-18.6,246.6-42.6c116.9-25,181.9-98.7,195-221L1256.5,323.7z"/>
			</g>
		</g>
		<path id="Path-50" class="st0" d="M663.1,1048.6c0-11.5,2.3-22.9,6.8-33.5l10.3-24.3c11.3-26.5,19.6-54.2,24.7-82.5l32.4-178.5
			c3.2-17.7,9.1-34.8,17.5-50.7c8.4-15.9,18.6-30.9,30.3-44.6l118.5-138.2l0,0l109,86.9l-110,95.8c-50.3,43.8-88.4,100-110.6,162.9
			L755,947.2c-4.8,13.8-7.3,28.2-7.3,42.8v4.2c0,11.9-0.8,23.7-2.3,35.5l-1.5,11.6c-0.9,7.4-7.2,12.9-14.7,12.9l0,0l0,0
			c-6.8,14.4-22.9,22.1-38.4,18.4l-10.7-2.6C670.1,1067.7,663.1,1058.8,663.1,1048.6z"/>
		<path id="Path-61" class="st4" d="M995.5,356.7c-17.1,21.8-14.3,47.9,8.2,78.4c33.8,45.8-65.4,113.2-102.7,23.7
			C876.2,399.2,907.7,365.2,995.5,356.7z"/>
		<line id="Path-63" class="st11" x1="837.9" y1="748.8" x2="807.1" y2="729.3"/>
	</g>
</g>
</svg>
