<?xml version="1.0" encoding="utf-8"?>
<!-- Generator: Adobe Illustrator 24.1.2, SVG Export Plug-In . SVG Version: 6.00 Build 0)  -->
<svg version="1.1" id="work" xmlns="http://www.w3.org/2000/svg" xmlns:xlink="http://www.w3.org/1999/xlink" x="0px" y="0px"
	 viewBox="0 0 2500 2500" style="enable-background:new 0 0 2500 2500;" xml:space="preserve">
<style type="text/css">
	.st0{fill-rule:evenodd;clip-rule:evenodd;fill:#FEA7A8;}
	.st1{fill:none;stroke:#09072B;stroke-width:2;}
	.st2{fill-rule:evenodd;clip-rule:evenodd;fill:#261A5E;}
	.st3{fill:none;stroke:#FFFFFF;stroke-width:2;}
	.st4{fill-rule:evenodd;clip-rule:evenodd;fill:#0F0B47;}
	.st5{opacity:0.3;fill:none;stroke:#FFFFFF;stroke-width:2;enable-background:new    ;}
	.st6{fill-rule:evenodd;clip-rule:evenodd;fill:#3D9BEF;}
	.st7{opacity:0.1;fill-rule:evenodd;clip-rule:evenodd;fill:#0F0B47;enable-background:new    ;}
	.st8{fill-rule:evenodd;clip-rule:evenodd;fill:#E19394;}
	.st9{fill-rule:evenodd;clip-rule:evenodd;fill:#372A7F;}
	.st10{fill-rule:evenodd;clip-rule:evenodd;fill:#54479C;}
	.st11{fill:none;stroke:#0F0B47;stroke-width:2;}
	.st12{fill:none;stroke:#372A7F;stroke-width:2;}
	.st13{fill-rule:evenodd;clip-rule:evenodd;fill:#FFFFFF;}
	.st14{fill:#FFD884;}
	.st15{fill:#FFBF41;}
	.st16{fill:#58B8C0;}
	.st17{fill:#EBD9EC;}
	.st18{fill-rule:evenodd;clip-rule:evenodd;fill:#B3DBC9;}
	.st19{fill-rule:evenodd;clip-rule:evenodd;fill:#BCE6D3;}
	.st20{fill-rule:evenodd;clip-rule:evenodd;fill:#F69800;}
	.st21{opacity:0.5;fill:none;stroke:#FFFFFF;stroke-width:2;enable-background:new    ;}
	.st22{opacity:0.2;fill-rule:evenodd;clip-rule:evenodd;fill:#261A5E;enable-background:new    ;}
	.st23{fill-rule:evenodd;clip-rule:evenodd;fill:#003E8C;}
	.st24{fill-rule:evenodd;clip-rule:evenodd;fill:#08234A;}
	.st25{fill-rule:evenodd;clip-rule:evenodd;fill:#FFFCF8;}
	.st26{fill-rule:evenodd;clip-rule:evenodd;fill:#DBD8FF;}
	.st27{fill-rule:evenodd;clip-rule:evenodd;fill:#C2C0E7;}
	.st28{fill-rule:evenodd;clip-rule:evenodd;fill:#3F38A2;}
	.st29{fill-rule:evenodd;clip-rule:evenodd;fill:#363082;}
	.st30{fill:none;stroke:#FFFFFF;stroke-width:2;stroke-linecap:round;}
	.st31{fill:none;stroke:#DBD8FF;stroke-width:2;stroke-linecap:round;}
	.st32{fill-rule:evenodd;clip-rule:evenodd;fill:#003E8C;stroke:#0F0B47;stroke-width:2;}
	.st33{fill-rule:evenodd;clip-rule:evenodd;fill:#4B55F3;}
	.st34{fill-rule:evenodd;clip-rule:evenodd;fill:#181364;}
	.st35{fill-rule:evenodd;clip-rule:evenodd;fill:#06041A;}
	.st36{opacity:0.6;fill:none;stroke:#FFFFFF;stroke-width:2;enable-background:new    ;}
	.st37{fill-rule:evenodd;clip-rule:evenodd;fill:#FFD422;}
	.st38{fill-rule:evenodd;clip-rule:evenodd;fill:#FFFFFF;stroke:#0F0B47;stroke-width:2;}
	.st39{fill-rule:evenodd;clip-rule:evenodd;fill:#FF0021;}
	.st40{fill:none;stroke:#0F0B47;stroke-width:2;stroke-linecap:round;}
	.st41{fill-rule:evenodd;clip-rule:evenodd;fill:#FEA7A8;stroke:#0F0B47;stroke-width:2;}
	.st42{fill-rule:evenodd;clip-rule:evenodd;fill:#EA0422;}
	.st43{fill-rule:evenodd;clip-rule:evenodd;fill:#0C0936;}
	.st44{fill-rule:evenodd;clip-rule:evenodd;fill:#F3A3A4;}
	.st45{fill-rule:evenodd;clip-rule:evenodd;fill:#0F0B47;stroke:#FFFFFF;stroke-width:2;}
	.st46{fill-rule:evenodd;clip-rule:evenodd;fill:#F7A4A5;}
	.st47{opacity:0.4;fill:none;stroke:#FFFFFF;stroke-width:2;enable-background:new    ;}
	.st48{fill-rule:evenodd;clip-rule:evenodd;fill:#0E8B80;}
	.st49{fill-rule:evenodd;clip-rule:evenodd;fill:#BF4A24;}
	.st50{fill:none;stroke:#FFFCF8;stroke-width:2;}
	.st51{fill:none;stroke:#BF4A24;stroke-width:2;}
	.st52{fill-rule:evenodd;clip-rule:evenodd;fill:#FF77A5;}
	.st53{fill-rule:evenodd;clip-rule:evenodd;fill:#FFC84B;}
	.st54{fill-rule:evenodd;clip-rule:evenodd;fill:#ECB947;}
	.st55{fill-rule:evenodd;clip-rule:evenodd;fill:#0C8076;}
	.st56{fill-rule:evenodd;clip-rule:evenodd;fill:#F9F9F9;}
	.st57{fill:none;stroke:#F9F9F9;stroke-width:2;}
	.st58{fill-rule:evenodd;clip-rule:evenodd;fill:#FF622D;}
	.st59{fill-rule:evenodd;clip-rule:evenodd;fill:#DB4F20;}
	.st60{fill-rule:evenodd;clip-rule:evenodd;fill:#006D85;}
	.st61{fill-rule:evenodd;clip-rule:evenodd;fill:#0094B4;}
	.st62{fill-rule:evenodd;clip-rule:evenodd;fill:#733014;}
	.st63{fill:none;stroke:#733014;stroke-width:2;}
	.st64{opacity:0.1;fill-rule:evenodd;clip-rule:evenodd;enable-background:new    ;}
	.st65{fill-rule:evenodd;clip-rule:evenodd;}
	.st66{fill:none;stroke:#000000;stroke-width:2;}
	.st67{fill-rule:evenodd;clip-rule:evenodd;fill:#4267FF;}
	.st68{fill-rule:evenodd;clip-rule:evenodd;fill:#E19495;}
	.st69{fill-rule:evenodd;clip-rule:evenodd;fill:#202746;}
	.st70{fill-rule:evenodd;clip-rule:evenodd;fill:#2945BB;}
	.st71{fill-rule:evenodd;clip-rule:evenodd;fill:#774033;}
	.st72{fill:none;stroke:#774033;stroke-width:2;}
	.st73{fill-rule:evenodd;clip-rule:evenodd;fill:#EEA013;}
	.st74{fill-rule:evenodd;clip-rule:evenodd;fill:#DB9311;}
	.st75{fill-rule:evenodd;clip-rule:evenodd;fill:#3E60EB;}
	.st76{opacity:0.1;fill-rule:evenodd;clip-rule:evenodd;fill:#FFFFFF;enable-background:new    ;}
	.st77{fill:none;stroke:#261A5E;stroke-width:2;}
	.st78{fill-rule:evenodd;clip-rule:evenodd;fill:#FF5D5C;}
	.st79{fill-rule:evenodd;clip-rule:evenodd;fill:#D95150;}
	.st80{fill-rule:evenodd;clip-rule:evenodd;fill:#03CEFA;}
	.st81{fill-rule:evenodd;clip-rule:evenodd;fill:#03BCE4;}
	.st82{fill-rule:evenodd;clip-rule:evenodd;fill:#402E92;}
	.st83{fill-rule:evenodd;clip-rule:evenodd;fill:#DC678F;}
	.st84{fill-rule:evenodd;clip-rule:evenodd;fill:#98C3AF;}
	.st85{fill-rule:evenodd;clip-rule:evenodd;fill:#19D9EB;}
	.st86{fill-rule:evenodd;clip-rule:evenodd;fill:#13C3D3;}
	.st87{fill-rule:evenodd;clip-rule:evenodd;fill:#10A6B4;}
	.st88{fill-rule:evenodd;clip-rule:evenodd;fill:#FEDD00;}
	.st89{fill-rule:evenodd;clip-rule:evenodd;fill:#358BD7;}
	.st90{fill-rule:evenodd;clip-rule:evenodd;fill:#017F5D;}
	.st91{opacity:0.2;fill:none;stroke:#FFFFFF;stroke-width:2;enable-background:new    ;}
	.st92{fill-rule:evenodd;clip-rule:evenodd;fill:#00976F;}
	.st93{fill-rule:evenodd;clip-rule:evenodd;fill:#FF2200;}
	.st94{fill-rule:evenodd;clip-rule:evenodd;fill:#EE2304;}
	.st95{opacity:0.1;fill-rule:evenodd;clip-rule:evenodd;fill:#002C46;enable-background:new    ;}
	.st96{fill-rule:evenodd;clip-rule:evenodd;fill:#FF81C3;}
	.st97{opacity:0.3;fill-rule:evenodd;clip-rule:evenodd;fill:#BD461E;enable-background:new    ;}
	.st98{fill-rule:evenodd;clip-rule:evenodd;fill:#2F170B;}
	.st99{fill-rule:evenodd;clip-rule:evenodd;fill:#FFC09F;}
	.st100{opacity:0.2;fill-rule:evenodd;clip-rule:evenodd;fill:#6A3D25;enable-background:new    ;}
	.st101{fill-rule:evenodd;clip-rule:evenodd;fill:#6A3D25;}
	.st102{fill-rule:evenodd;clip-rule:evenodd;fill:#284BF2;}
	.st103{fill-rule:evenodd;clip-rule:evenodd;fill:#EB5D2D;}
	.st104{fill-rule:evenodd;clip-rule:evenodd;fill:#FFB34D;}
	.st105{opacity:0.2;fill-rule:evenodd;clip-rule:evenodd;fill:#2F170B;enable-background:new    ;}
	.st106{opacity:0.3;fill-rule:evenodd;clip-rule:evenodd;fill:#2F170B;enable-background:new    ;}
	.st107{fill:none;stroke:#2F170B;stroke-width:2;}
	.st108{fill-rule:evenodd;clip-rule:evenodd;fill:#FF5A59;}
	.st109{fill-rule:evenodd;clip-rule:evenodd;fill:#E94E4D;}
</style>
<g id="_x38_---girl-drinking-coffee-in-take-away-cup-while-standing-or-sitting">
	<g transform="translate(128.000000, 106.000000)">
		<line id="Path-195" class="st11" x1="72.6" y1="1417" x2="2171.4" y2="1417"/>
		<g id="Group-9_10_" transform="translate(70.000000, 0.000000)">
			<g id="Group-2_12_" transform="translate(149.239510, 0.000000)">
				<path id="Rectangle_25_" class="st58" d="M704.4,112.9h119.8v15.8l-14.9,174.2c-0.3,4-3.7,7.1-7.7,7.1h-74.7
					c-4,0-7.4-3.1-7.7-7.1l-14.9-174.2l0,0V112.9z"/>
				<path id="Path_79_" class="st59" d="M824.2,114.8l0,13.9l-14.9,174.2c-0.3,4-3.7,7.1-7.7,7.1h-74.7c-4,0-7.4-3.1-7.7-7.1
					l-6-70.3c6.5-8,14.3-14.8,23.5-20.1l1.9-1.1c39.8-22.1,59.1-53.7,58-94.8l-0.1-1.8H824.2z"/>
				<path id="Rectangle-Copy-2_10_" class="st48" d="M739.2,85.8h50.2c10.7,0,19.3,8.7,19.3,19.3l0,0l0,0h-88.9
					C719.8,94.5,728.5,85.8,739.2,85.8z"/>
				<path id="Rectangle_24_" class="st55" d="M704.4,101.3h119.8c2.1,0,3.9,1.7,3.9,3.9v11.6c0,2.1-1.7,3.9-3.9,3.9H704.4
					c-2.1,0-3.9-1.7-3.9-3.9v-11.6C700.5,103,702.3,101.3,704.4,101.3z"/>
				<polygon id="Path-52_2_" class="st53" points="704.4,163.4 824.2,163.4 818.2,233.4 710.4,233.4 				"/>
			</g>
			<g id="Group-8_5_" transform="translate(0.000000, 158.441156)">
				
					<g id="Group-4-Copy_5_" transform="translate(79.983797, 167.029521) scale(-1, 1) rotate(25.000000) translate(-79.983797, -167.029521) translate(8.983797, 132.029521)">
					<polygon id="Path-60_9_" class="st0" points="-228,1113.8 -123,1196.7 10.4,1128.2 -97.5,1038 					"/>
					<path id="Path-58_9_" class="st4" d="M-134.6,1195.8L-24,1085.5c2.6-2.6,6.6-3,9.7-1l32.2,21.2c23.9,15.8,53.3,21,81.2,14.4
						l170.3-39.9c15-3.5,30.5,3.8,37.3,17.7c6.3,12.9,0.9,28.5-12,34.8c-0.1,0.1-0.2,0.1-0.4,0.2l-325.1,152.6
						c-22.5,10.5-49.2,3.1-63.1-17.5l-41.9-62.4C-137.6,1202.5-137.2,1198.4-134.6,1195.8z"/>
					<path id="Path_78_" class="st3" d="M-92.3,1152.7l37.6,27.6c15.3,11.2,36.3,10.6,50.9-1.5c11.5-9.5,13.1-26.6,3.6-38.1
						c-1-1.2-2.1-2.4-3.4-3.4l-39.1-33.1l0,0"/>
				</g>
				<g id="Group-5_11_" transform="translate(53.000000, 0.000000)">
					<path id="Path-190" class="st60" d="M1451.9,825.6l-310.2-222.5c-41.1-29.5-89-48.1-139.2-54.3c-48.4-5.9-96.9,10.4-132,44.3
						L427,1022.5l0,0l371,127.6l207.3-300.6l191.1,236.1L1451.9,825.6z"/>
					<polygon id="Path-192" class="st4" points="1005.2,849.5 941,751.6 876.9,1058 					"/>
					<polyline id="Path-8_7_" class="st21" points="654,1100.8 925.9,729.7 1005.2,849.5 					"/>
				</g>
				
					<g id="Group-4_16_" transform="translate(198.131138, 366.123102) scale(-1, 1) rotate(25.000000) translate(-198.131138, -366.123102) translate(138.131138, 325.123102)">
					<polygon id="Path-60_8_" class="st0" points="-253.4,1755.3 -235.6,1878.8 -102.3,1810.4 -123,1679.5 					"/>
					<path id="Path-58_8_" class="st4" d="M-252.4,1832.6l143.2-63.2c3.6-1.6,7.7-0.3,9.7,3.1l12.4,20.4
						c9.6,15.9,27.9,24.4,46.2,21.5l192.2-30c15.5-2.4,30.8,5.5,37.7,19.7c6,12.3,0.9,27.2-11.4,33.2c-0.5,0.2-0.9,0.4-1.4,0.6
						L-149.3,1973c-25.6,10.6-55-1.5-65.7-27.1c-0.1-0.2-0.2-0.4-0.2-0.6l-41.2-102.8C-258,1838.7-256.2,1834.3-252.4,1832.6z"/>
					<path id="Path-59_7_" class="st3" d="M-200,1808.6l16,34.2c8.2,17.5,28.8,25.3,46.5,17.7c17.7-7.5,26-27.9,18.6-45.6
						l-14.6-35.3l0,0"/>
				</g>
				<g id="Group-6_7_" transform="translate(136.739536, 66.247127)">
					<path id="Path-189" class="st61" d="M1519.2,739.5l39.1,145.1c19.5,72.5,11.3,149.7-23,216.4c-32.5,63.2-98.9,101.6-169.9,98.1
						L987,1180.9l0,0l206,576.9H802.6L684,1200.4c-12.4-58.5-3.3-119.5,25.9-171.7c28.4-50.8,79.4-84.9,137.3-91.6l227.1-26.2
						c112.6-13,211.5-81,264-181.5l0,0l0,0L1519.2,739.5z"/>
					<polygon id="Path-193" class="st4" points="987,1180.9 892.7,1180.9 1074.9,1426.1 					"/>
					<path id="Path-2_10_" class="st21" d="M1037.3,1757.7l-215.6-529.9c-12.4-30.6-14.9-64.3-7-96.3c7.1-28.9,33-49.3,62.9-49.3
						h406.7c43.3,0,84.2-19.5,111.4-53.2c27.8-34.4,43-77.3,43-121.6V741.7l0,0"/>
				</g>
			</g>
			<path id="Path-176" class="st62" d="M1815.7,638.6c-49.1-134.3-163.4-103.9-155.4-195.4s-15.8-114.9-38.6-131.7
				c-22.8-16.9-92.5-52.2-159,21.4c-66.5,73.6-121,16.7-131.3,139.8c-10.3,123.1-210.6,221.8-39.4,325.9s192.5,98.8,348,107.8
				C1795.5,915.5,1864.8,772.9,1815.7,638.6z"/>
			<g id="Group-3_8_" transform="translate(160.884740, 27.618612)">
				<path id="Path-179" class="st0" d="M1057,552.1l-48.9-4.5L880,265.7c-7.1-15.6-16-30.3-26.5-43.9
					c-10.4-13.4-23.9-24.1-39.3-31.1l-44.3-20.4c-4.4-2-9.7-0.1-11.7,4.3c-0.5,1-0.7,2.1-0.8,3.2c-0.5,8.1,3,15.9,9.3,21l34.1,27.4
					l0,0c-5.6,25-8.4,43.5-8.4,55.4l-55.7,0.6c29.1,36.3,51.8,55.4,68,57.3l85.2,285.6c4.9,16.4,13.3,31.6,24.7,44.4
					c11,12.4,26.8,19.4,43.3,19.4h99l0,0V552.1z"/>
				<path id="Path-180" class="st11" d="M792.5,275.4c-1.3,22,4.9,35.9,18.7,41.7"/>
				<line id="Path-5_9_" class="st11" x1="1008" y1="547.6" x2="990.7" y2="576.6"/>
			</g>
			<g id="Group-2_11_" transform="translate(163.626817, 214.710055)">
				<path id="Path-186" class="st0" d="M1264.7,700.8l-27.9,37.2c-15.9,21.2-34,40.8-53.9,58.3L1005.2,953
					c-28.7,25.3-62.4,44.3-98.9,55.8l-17.8,5.6c-24.8,7.8-47.5,20.9-66.7,38.4c-19.3,17.6-35.8,38.1-48.9,60.7l-26.8,46
					c-2.6,4.5-2.1,10.1,1.3,14c3,3.5,8.3,3.9,11.9,0.9c0.1-0.1,0.1-0.1,0.2-0.2l3.7-3.3l0,0l-3.3,6.9c-2.5,5.3-1.4,11.5,2.7,15.6
					c3.4,3.3,8.8,3.3,12.2-0.1c0.2-0.2,0.5-0.5,0.7-0.8l2.3-3l0,0l-1.4,4.9c-1.4,5,0.4,10.4,4.6,13.4c4,2.9,9.5,2.3,12.8-1.4
					l20.1-22.9c14.4-16.4,30.1-31.5,47-45.2l11.2-9.1l0,0l-10.2,15.6c-7.3,11.1-13.5,22.9-18.6,35.1l-3,7.1
					c-2.6,6.3,0.2,13.5,6.3,16.4c6.2,2.9,13.6,0.4,16.9-5.6l4.9-9.1c7.1-13.1,16.2-25.1,27-35.4l44.9-42.9l0,0
					c35.8-1.4,66.6-17.1,92.6-47.2l222.5-153c19-13.1,36.8-27.8,53.2-44.1l17.5-17.3c9.7-9.6,18.9-19.8,27.5-30.4l26.9-33l0,0
					L1264.7,700.8z"/>
				<path id="Path-187" class="st11" d="M836.7,1068.5l-18.1,20.8c-15.1,17.4-28.6,36.1-40.4,55.9l-15.2,25.6l0,0"/>
				<path id="Path-188" class="st11" d="M854.9,1092.2l-20.3,21.4c-14,14.7-26.8,30.5-38.3,47.2l-20.6,30l0,0"/>
			</g>
			<path id="Path-178" class="st52" d="M1204.4,575.2h153.2c20.9,0,41.9,1.7,62.5,5.1l71.7,11.8l0,0l87.8-4.4
				c39.7-2,78.6,12,107.8,38.9c28.2,26,40.2,65.2,31.1,102.5l-57.7,238.4l0,0l-85.5-4.8l-27.2,45.3l-142.4-85.3l16.8-25.8
				l-29.2-25.5c-11.4-9.9-19-23.5-21.6-38.4c-2.6-15.2-2.2-30.8,1.3-45.9l11.9-51.5l0,0L1204.4,724V575.2z"/>
			<path id="Path-194" class="st62" d="M1586.9,523.9c-62.6,37.7-85,78.3-67.2,121.9c8.4,20.6,33.6,23.9,46.3,24.5
				c42.4,2.1,42.4-55.6,100.4-43.7c48.4,9.9,57.9,75.6,28.6,196.9l38.2-32.1l33.1-110.8L1695,568.3L1586.9,523.9z"/>
			<polygon id="Path_77_" class="st4" points="1400,698 1384.7,735.5 1218.8,725 			"/>
			<g id="Group_13_" transform="translate(297.828916, 72.361224)">
				<path id="Path-172" class="st0" d="M1180,299l-37.3,79.1c-9.5,20-12.7,42.5-9.2,64.4c3.3,20.6,17.7,37.8,37.5,44.5l15.3,5.2l0,0
					v81c0,14.9,12.1,27,27,27h68.4l0,0c-14.1-1.6-26.3-8.7-36.6-21.3c-28.7-35.2-6.6-112.2,44-127.2c39.7,4.9,61.7-6,66-32.5
					c4.2-26.6-12.1-38.9-49.1-37c-19.4-17.2-22.6-43.5-9.8-79C1237.6,316.8,1198.9,315.4,1180,299z"/>
				<path id="Path_76_" class="st8" d="M1231.4,484.9l-45.1,57.5l0-50.3l-3.7-1.2C1199.7,493.8,1216,491.8,1231.4,484.9z"/>
				<path id="Path-173" class="st11" d="M1194.7,359.8l-5.7,10.9c-3.1,5.9-8.1,10.5-14.3,13.1l-2.4,1c-4.3,1.8-7.1,6-7.1,10.7
					c0,4.5,3.1,8.4,7.5,9.5l11.4,2.7l0,0"/>
				<path id="Path-3_9_" class="st63" d="M1298.1,299c-22.4,44.2-17.6,71.8,14.2,82.8"/>
				<g id="Group-7_9_" transform="translate(4.325707, 8.716572)">
					<ellipse id="Oval_26_" class="st3" cx="1160.6" cy="340.1" rx="22.1" ry="22.1"/>
					<ellipse id="Oval-Copy_8_" class="st3" cx="1215.8" cy="369.6" rx="22.1" ry="22.1"/>
					<line id="Path-174" class="st3" x1="1179.9" y1="347.5" x2="1199.6" y2="356.6"/>
					<line id="Path-175" class="st3" x1="1235.5" y1="373.1" x2="1308" y2="373.1"/>
				</g>
				<path id="Rectangle-Copy_6_" class="st62" d="M1249,350.4l-20.1-12.5c-1.7-1-3.8-0.5-4.9,1.1c0,0,0,0,0,0.1
					c-1,1.7-0.5,3.9,1.2,5l20.1,12.5c1.7,1,3.8,0.5,4.9-1.1c0,0,0,0,0-0.1C1251.2,353.7,1250.7,351.5,1249,350.4z"/>
				<path id="Rectangle-Copy-2_9_" class="st62" d="M1174.9,309.1l19.6,13.3c1.6,1.1,2,3.3,1,4.9c0,0,0,0,0,0
					c-1.1,1.6-3.4,2.1-5.1,0.9l-19.6-13.3c-1.6-1.1-2-3.3-1-4.9c0,0,0,0,0,0C1171,308.4,1173.2,308,1174.9,309.1z"/>
				<path id="Path-177" class="st13" d="M1159.6,418.4l47.3,10c-9.3,11.7-19,16.6-29.1,14.7C1167.8,441.1,1161.7,432.9,1159.6,418.4
					z"/>
				<circle id="Oval_25_" class="st4" cx="1169.1" cy="351.5" r="5.8"/>
				<circle id="Oval-Copy-2_4_" class="st4" cx="1219.4" cy="378.6" r="5.8"/>
				<path id="Path-4_10_" class="st3" d="M1294.2,299c-44.2,13.1-81.4,11.1-111.5-6"/>
				<path id="Path-6_7_" class="st3" d="M1186,561c-2.5,27.4,6.2,41.2,26,41.2c19.9,0,41.7,0,65.5,0"/>
				<path id="Path-7_7_" class="st11" d="M1304.6,418.4l-2.6-14.3c8.8-8.3,19.4-10.6,31.9-7c18.7,5.5,17,25.7,8.4,31.7"/>
			</g>
			<polygon id="Path_75_" class="st4" points="1656,833.8 1641.7,966.4 1575.4,962.7 			"/>
			<g id="Group-4_15_" transform="translate(144.707802, 25.816670)">
				<path id="Path-181" class="st0" d="M712.8,159.7l2.5,21.1l20.5,5.3c7.8,2,13.2,9,13.2,17.1c0,6.1-4.9,11-11,11
					c-0.8,0-1.6-0.1-2.3-0.2l-7.2-1.5l0,0l16.4,10.3c4.9,3.1,7.9,8.5,7.9,14.3c0,5.2-4.2,9.3-9.3,9.3H738l0,0l11.6,7
					c5,3,7.6,8.7,6.8,14.4c-0.7,4.9-5.3,8.3-10.2,7.5c-0.2,0-0.4-0.1-0.6-0.1l-5.2-1.1l0,0l8.2,7.6c3.8,3.5,4.9,9,2.9,13.8
					c-1.9,4.4-7,6.4-11.4,4.6l-11.5-4.8c-10.9-4.5-17.4-15.9-15.9-27.6l0,0l0,0c-12.2-5.3-18.4-19.1-14.3-31.8l0.5-1.6l0,0
					c-6.9-5.8-9.7-15.2-6.9-23.8l2.8-8.7l0,0l-1.1-1.9c-3.9-6.6-4.8-14.5-2.5-21.9c2.3-7.3,7.8-13.1,14.9-15.8L712.8,159.7
					L712.8,159.7z"/>
				<line id="Path-182" class="st11" x1="707.2" y1="179" x2="717.9" y2="181.4"/>
				<line id="Path-183" class="st11" x1="693.5" y1="200.8" x2="734" y2="214.5"/>
				<line id="Path-184" class="st11" x1="697.8" y1="234.3" x2="739" y2="247"/>
				<line id="Path-185" class="st11" x1="709.3" y1="265.7" x2="743.7" y2="275"/>
			</g>
			<line id="Path-191" class="st3" x1="1561.5" y1="689.8" x2="1417.2" y2="907.5"/>
		</g>
	</g>
</g>
</svg>
