<svg xmlns="http://www.w3.org/2000/svg" viewBox="0 0 530.816 663.52"><rect width="530.816" height="663.52" fill="#1D2044FF" id="bg" class="bg"/><g><g transform="translate(0.00,&#10;                                0.00) rotate(180, 26.5408, 26.5408)"><svg xmlns="http://www.w3.org/2000/svg" id="Layer_1" data-name="Layer 1" viewBox="0 0 100 100" width="53.0816" height="53.0816"><path d="M50,0a50,50,0,0,0,0,100h50V50A50.005,50.005,0,0,0,50,0ZM75,75H50A25,25,0,1,1,75,50Z" fill="#D0BDB0"/></svg></g><g transform="translate(53.08,&#10;                                0.00) rotate(180, 26.5408, 26.5408)"><svg xmlns="http://www.w3.org/2000/svg" id="Layer_1" data-name="Layer 1" viewBox="0 0 100 100" width="53.0816" height="53.0816"><path d="M50,0a50,50,0,0,0,0,100h50V50A50.005,50.005,0,0,0,50,0ZM75,75H50A25,25,0,1,1,75,50Z" fill="#D0BDB0"/></svg></g><g transform="translate(53.08,&#10;                                53.08) rotate(0, 26.5408, 26.5408)"><svg xmlns="http://www.w3.org/2000/svg" id="Layer_1" data-name="Layer 1" viewBox="0 0 100 100" width="53.0816" height="53.0816"><circle cx="50" cy="50" r="50" fill="#2C0705"/></svg></g><g transform="translate(106.16,&#10;                                0.00) rotate(180, 26.5408, 26.5408)"><svg xmlns="http://www.w3.org/2000/svg" id="Layer_1" data-name="Layer 1" viewBox="0 0 100 100" width="53.0816" height="53.0816"><path d="M100,100A50,50,0,0,0,0,100Z" fill="#eee9e9"/></svg></g><g transform="translate(159.24,&#10;                                0.00) rotate(90, 26.5408, 26.5408)"><svg xmlns="http://www.w3.org/2000/svg" id="Layer_1" data-name="Layer 1" viewBox="0 0 100 100" width="53.0816" height="53.0816"><path d="M100,100A50,50,0,0,0,0,100Z" fill="#eee9e9"/></svg></g><g transform="translate(159.24,&#10;                                53.08) rotate(90, 26.5408, 26.5408)"><svg xmlns="http://www.w3.org/2000/svg" id="Layer_1" data-name="Layer 1" viewBox="0 0 100 100" width="53.0816" height="53.0816"><path d="M100,100A50,50,0,0,0,0,100Z" fill="#eee9e9"/></svg></g><g transform="translate(212.33,&#10;                                0.00) rotate(90, 26.5408, 26.5408)"><svg xmlns="http://www.w3.org/2000/svg" id="Layer_1" data-name="Layer 1" viewBox="0 0 100 100" width="53.0816" height="53.0816"><path d="M50,0a50,50,0,0,0,0,100h50V50A50.005,50.005,0,0,0,50,0ZM75,75H50A25,25,0,1,1,75,50Z" fill="#D0BDB0"/></svg></g><g transform="translate(265.41,&#10;                                0.00) rotate(180, 26.5408, 26.5408)"><svg xmlns="http://www.w3.org/2000/svg" id="Layer_1" data-name="Layer 1" viewBox="0 0 100 100" width="53.0816" height="53.0816"><path d="M50,0a50,50,0,0,0,0,100h50V50A50.005,50.005,0,0,0,50,0ZM75,75H50A25,25,0,1,1,75,50Z" fill="#D0BDB0"/></svg></g><g transform="translate(265.41,&#10;                                53.08) rotate(270, 26.5408, 26.5408)"><svg xmlns="http://www.w3.org/2000/svg" id="Layer_1" data-name="Layer 1" viewBox="0 0 100 100" width="53.0816" height="53.0816"><path d="M100,100A50,50,0,0,0,0,100Z" fill="#eee9e9"/></svg></g><g transform="translate(318.49,&#10;                                0.00) rotate(180, 26.5408, 26.5408)"><svg xmlns="http://www.w3.org/2000/svg" id="Layer_1" data-name="Layer 1" viewBox="0 0 100 100" width="53.0816" height="53.0816"><path d="M50,100h0A50,50,0,0,1,0,50V0H100V50A50,50,0,0,1,50,100Z" fill="#DEAD7F"/></svg></g><g transform="translate(371.57,&#10;                                0.00) rotate(0, 26.5408, 26.5408)"><svg xmlns="http://www.w3.org/2000/svg" id="Layer_1" data-name="Layer 1" viewBox="0 0 100 100" width="53.0816" height="53.0816"><path d="M50,0a50,50,0,0,0,0,100h50V50A50.005,50.005,0,0,0,50,0ZM75,75H50A25,25,0,1,1,75,50Z" fill="#D0BDB0"/></svg></g><g transform="translate(318.49,&#10;                                53.08) rotate(0, 26.5408, 26.5408)"><svg xmlns="http://www.w3.org/2000/svg" id="Layer_1" data-name="Layer 1" viewBox="0 0 100 100" width="53.0816" height="53.0816"><path d="M50,0a50,50,0,0,0,0,100h50V50A50.005,50.005,0,0,0,50,0ZM75,75H50A25,25,0,1,1,75,50Z" fill="#D0BDB0"/></svg></g><g transform="translate(371.57,&#10;                                53.08) rotate(270, 26.5408, 26.5408)"><svg xmlns="http://www.w3.org/2000/svg" id="Layer_1" data-name="Layer 1" viewBox="0 0 100 100" width="53.0816" height="53.0816"><path d="M100,100A50,50,0,0,0,0,100Z" fill="#eee9e9"/></svg></g><g transform="translate(477.73,&#10;                                0.00) rotate(180, 26.5408, 26.5408)"><svg xmlns="http://www.w3.org/2000/svg" id="Layer_1" data-name="Layer 1" viewBox="0 0 100 100" width="53.0816" height="53.0816"><path d="M50,0a50,50,0,0,0,0,100h50V50A50.005,50.005,0,0,0,50,0ZM75,75H50A25,25,0,1,1,75,50Z" fill="#D0BDB0"/></svg></g><g transform="translate(477.73,&#10;                                53.08) rotate(180, 26.5408, 26.5408)"><svg xmlns="http://www.w3.org/2000/svg" id="Layer_1" data-name="Layer 1" viewBox="0 0 100 100" width="53.0816" height="53.0816"><path d="M50,100h0A50,50,0,0,1,0,50V0H100V50A50,50,0,0,1,50,100Z" fill="#DEAD7F"/></svg></g></g><g><g transform="translate(0.00,&#10;                                106.16) rotate(270, 26.5408, 26.5408)"><svg xmlns="http://www.w3.org/2000/svg" id="Layer_1" data-name="Layer 1" viewBox="0 0 100 100" width="53.0816" height="53.0816"><path d="M50,0a50,50,0,0,0,0,100h50V50A50.005,50.005,0,0,0,50,0ZM75,75H50A25,25,0,1,1,75,50Z" fill="#D0BDB0"/></svg></g><g transform="translate(53.08,&#10;                                106.16) rotate(180, 26.5408, 26.5408)"><svg xmlns="http://www.w3.org/2000/svg" id="Layer_1" data-name="Layer 1" viewBox="0 0 100 100" width="53.0816" height="53.0816"><path d="M50,0a50,50,0,0,0,0,100h50V50A50.005,50.005,0,0,0,50,0ZM75,75H50A25,25,0,1,1,75,50Z" fill="#D0BDB0"/></svg></g><g transform="translate(53.08,&#10;                                159.24) rotate(0, 26.5408, 26.5408)"><svg xmlns="http://www.w3.org/2000/svg" id="Layer_1" data-name="Layer 1" viewBox="0 0 100 100" width="53.0816" height="53.0816"><circle cx="50" cy="50" r="50" fill="#2C0705"/></svg></g><g transform="translate(106.16,&#10;                                106.16) rotate(0, 26.5408, 26.5408)"><svg xmlns="http://www.w3.org/2000/svg" id="Layer_1" data-name="Layer 1" viewBox="0 0 100 100" width="53.0816" height="53.0816"><path d="M50,100h0A50,50,0,0,1,0,50V0H100V50A50,50,0,0,1,50,100Z" fill="#DEAD7F"/></svg></g><g transform="translate(159.24,&#10;                                106.16) rotate(0, 26.5408, 26.5408)"><svg xmlns="http://www.w3.org/2000/svg" id="Layer_1" data-name="Layer 1" viewBox="0 0 100 100" width="53.0816" height="53.0816"><path d="M50,100h0A50,50,0,0,1,0,50V0H100V50A50,50,0,0,1,50,100Z" fill="#DEAD7F"/></svg></g><g transform="translate(106.16,&#10;                                159.24) rotate(180, 26.5408, 26.5408)"><svg xmlns="http://www.w3.org/2000/svg" id="Layer_1" data-name="Layer 1" viewBox="0 0 100 100" width="53.0816" height="53.0816"><path d="M50,0a50,50,0,0,0,0,100h50V50A50.005,50.005,0,0,0,50,0ZM75,75H50A25,25,0,1,1,75,50Z" fill="#D0BDB0"/></svg></g><g transform="translate(159.24,&#10;                                159.24) rotate(90, 26.5408, 26.5408)"><svg xmlns="http://www.w3.org/2000/svg" id="Layer_1" data-name="Layer 1" viewBox="0 0 100 100" width="53.0816" height="53.0816"><circle cx="50" cy="50" r="50" fill="#2C0705"/></svg></g><g transform="translate(212.33,&#10;                                106.16) rotate(90, 26.5408, 26.5408)"><svg xmlns="http://www.w3.org/2000/svg" id="Layer_1" data-name="Layer 1" viewBox="0 0 100 100" width="53.0816" height="53.0816"><path d="M50,0a50,50,0,0,0,0,100h50V50A50.005,50.005,0,0,0,50,0ZM75,75H50A25,25,0,1,1,75,50Z" fill="#D0BDB0"/></svg></g><g transform="translate(265.41,&#10;                                159.24) rotate(90, 26.5408, 26.5408)"><svg xmlns="http://www.w3.org/2000/svg" id="Layer_1" data-name="Layer 1" viewBox="0 0 100 100" width="53.0816" height="53.0816"><circle cx="50" cy="50" r="50" fill="#2C0705"/></svg></g><g transform="translate(371.57,&#10;                                106.16) rotate(180, 26.5408, 26.5408)"><svg xmlns="http://www.w3.org/2000/svg" id="Layer_1" data-name="Layer 1" viewBox="0 0 100 100" width="53.0816" height="53.0816"><path d="M50,0a50,50,0,0,0,0,100h50V50A50.005,50.005,0,0,0,50,0ZM75,75H50A25,25,0,1,1,75,50Z" fill="#D0BDB0"/></svg></g><g transform="translate(371.57,&#10;                                159.24) rotate(90, 26.5408, 26.5408)"><svg xmlns="http://www.w3.org/2000/svg" id="Layer_1" data-name="Layer 1" viewBox="0 0 100 100" width="53.0816" height="53.0816"><path d="M100,100A50,50,0,0,0,0,100Z" fill="#eee9e9"/></svg></g><g transform="translate(424.65,&#10;                                106.16) rotate(180, 26.5408, 26.5408)"><svg xmlns="http://www.w3.org/2000/svg" id="Layer_1" data-name="Layer 1" viewBox="0 0 100 100" width="53.0816" height="53.0816"><path d="M50,0a50,50,0,0,0,0,100h50V50A50.005,50.005,0,0,0,50,0ZM75,75H50A25,25,0,1,1,75,50Z" fill="#D0BDB0"/></svg></g><g transform="translate(477.73,&#10;                                159.24) rotate(180, 26.5408, 26.5408)"><svg xmlns="http://www.w3.org/2000/svg" id="Layer_1" data-name="Layer 1" viewBox="0 0 100 100" width="53.0816" height="53.0816"><circle cx="50" cy="50" r="50" fill="#2C0705"/></svg></g></g><g><g transform="translate(53.08,&#10;                                212.33) rotate(270, 26.5408, 26.5408)"><svg xmlns="http://www.w3.org/2000/svg" id="Layer_1" data-name="Layer 1" viewBox="0 0 100 100" width="53.0816" height="53.0816"><path d="M50,0a50,50,0,0,0,0,100h50V50A50.005,50.005,0,0,0,50,0ZM75,75H50A25,25,0,1,1,75,50Z" fill="#D0BDB0"/></svg></g><g transform="translate(53.08,&#10;                                265.41) rotate(180, 26.5408, 26.5408)"><svg xmlns="http://www.w3.org/2000/svg" id="Layer_1" data-name="Layer 1" viewBox="0 0 100 100" width="53.0816" height="53.0816"><circle cx="50" cy="50" r="50" fill="#2C0705"/></svg></g><g transform="translate(106.16,&#10;                                212.33) rotate(90, 26.5408, 26.5408)"><svg xmlns="http://www.w3.org/2000/svg" id="Layer_1" data-name="Layer 1" viewBox="0 0 100 100" width="53.0816" height="53.0816"><path d="M50,0a50,50,0,0,0,0,100h50V50A50.005,50.005,0,0,0,50,0ZM75,75H50A25,25,0,1,1,75,50Z" fill="#D0BDB0"/></svg></g><g transform="translate(159.24,&#10;                                212.33) rotate(90, 26.5408, 26.5408)"><svg xmlns="http://www.w3.org/2000/svg" id="Layer_1" data-name="Layer 1" viewBox="0 0 100 100" width="53.0816" height="53.0816"><path d="M50,0a50,50,0,0,0,0,100h50V50A50.005,50.005,0,0,0,50,0ZM75,75H50A25,25,0,1,1,75,50Z" fill="#D0BDB0"/></svg></g><g transform="translate(159.24,&#10;                                265.41) rotate(90, 26.5408, 26.5408)"><svg xmlns="http://www.w3.org/2000/svg" id="Layer_1" data-name="Layer 1" viewBox="0 0 100 100" width="53.0816" height="53.0816"><circle cx="50" cy="50" r="50" fill="#2C0705"/></svg></g><g transform="translate(212.33,&#10;                                212.33) rotate(90, 26.5408, 26.5408)"><svg xmlns="http://www.w3.org/2000/svg" id="Layer_1" data-name="Layer 1" viewBox="0 0 100 100" width="53.0816" height="53.0816"><path d="M50,0a50,50,0,0,0,0,100h50V50A50.005,50.005,0,0,0,50,0ZM75,75H50A25,25,0,1,1,75,50Z" fill="#D0BDB0"/></svg></g><g transform="translate(265.41,&#10;                                212.33) rotate(270, 26.5408, 26.5408)"><svg xmlns="http://www.w3.org/2000/svg" id="Layer_1" data-name="Layer 1" viewBox="0 0 100 100" width="53.0816" height="53.0816"><path d="M100,100A50,50,0,0,0,0,100Z" fill="#eee9e9"/></svg></g><g transform="translate(265.41,&#10;                                265.41) rotate(90, 26.5408, 26.5408)"><svg xmlns="http://www.w3.org/2000/svg" id="Layer_1" data-name="Layer 1" viewBox="0 0 100 100" width="53.0816" height="53.0816"><path d="M100,100A50,50,0,0,0,0,100Z" fill="#eee9e9"/></svg></g><g transform="translate(318.49,&#10;                                212.33) rotate(270, 26.5408, 26.5408)"><svg xmlns="http://www.w3.org/2000/svg" id="Layer_1" data-name="Layer 1" viewBox="0 0 100 100" width="53.0816" height="53.0816"><path d="M50,100h0A50,50,0,0,1,0,50V0H100V50A50,50,0,0,1,50,100Z" fill="#DEAD7F"/></svg></g><g transform="translate(371.57,&#10;                                265.41) rotate(180, 26.5408, 26.5408)"><svg xmlns="http://www.w3.org/2000/svg" id="Layer_1" data-name="Layer 1" viewBox="0 0 100 100" width="53.0816" height="53.0816"><circle cx="50" cy="50" r="50" fill="#2C0705"/></svg></g><g transform="translate(477.73,&#10;                                265.41) rotate(0, 26.5408, 26.5408)"><svg xmlns="http://www.w3.org/2000/svg" id="Layer_1" data-name="Layer 1" viewBox="0 0 100 100" width="53.0816" height="53.0816"><path d="M100,100A50,50,0,0,0,0,100Z" fill="#eee9e9"/></svg></g></g><g><g transform="translate(53.08,&#10;                                318.49) rotate(270, 26.5408, 26.5408)"><svg xmlns="http://www.w3.org/2000/svg" id="Layer_1" data-name="Layer 1" viewBox="0 0 100 100" width="53.0816" height="53.0816"><path d="M100,100A50,50,0,0,0,0,100Z" fill="#eee9e9"/></svg></g><g transform="translate(53.08,&#10;                                371.57) rotate(0, 26.5408, 26.5408)"><svg xmlns="http://www.w3.org/2000/svg" id="Layer_1" data-name="Layer 1" viewBox="0 0 100 100" width="53.0816" height="53.0816"><path d="M100,100A50,50,0,0,0,0,100Z" fill="#eee9e9"/></svg></g><g transform="translate(106.16,&#10;                                318.49) rotate(180, 26.5408, 26.5408)"><svg xmlns="http://www.w3.org/2000/svg" id="Layer_1" data-name="Layer 1" viewBox="0 0 100 100" width="53.0816" height="53.0816"><path d="M100,100A50,50,0,0,0,0,100Z" fill="#eee9e9"/></svg></g><g transform="translate(159.24,&#10;                                318.49) rotate(0, 26.5408, 26.5408)"><svg xmlns="http://www.w3.org/2000/svg" id="Layer_1" data-name="Layer 1" viewBox="0 0 100 100" width="53.0816" height="53.0816"><path d="M50,0a50,50,0,0,0,0,100h50V50A50.005,50.005,0,0,0,50,0ZM75,75H50A25,25,0,1,1,75,50Z" fill="#D0BDB0"/></svg></g><g transform="translate(159.24,&#10;                                371.57) rotate(90, 26.5408, 26.5408)"><svg xmlns="http://www.w3.org/2000/svg" id="Layer_1" data-name="Layer 1" viewBox="0 0 100 100" width="53.0816" height="53.0816"><circle cx="50" cy="50" r="50" fill="#2C0705"/></svg></g><g transform="translate(212.33,&#10;                                318.49) rotate(90, 26.5408, 26.5408)"><svg xmlns="http://www.w3.org/2000/svg" id="Layer_1" data-name="Layer 1" viewBox="0 0 100 100" width="53.0816" height="53.0816"><path d="M50,100h0A50,50,0,0,1,0,50V0H100V50A50,50,0,0,1,50,100Z" fill="#DEAD7F"/></svg></g><g transform="translate(212.33,&#10;                                371.57) rotate(180, 26.5408, 26.5408)"><svg xmlns="http://www.w3.org/2000/svg" id="Layer_1" data-name="Layer 1" viewBox="0 0 100 100" width="53.0816" height="53.0816"><path d="M50,0a50,50,0,0,0,0,100h50V50A50.005,50.005,0,0,0,50,0ZM75,75H50A25,25,0,1,1,75,50Z" fill="#D0BDB0"/></svg></g><g transform="translate(265.41,&#10;                                371.57) rotate(270, 26.5408, 26.5408)"><svg xmlns="http://www.w3.org/2000/svg" id="Layer_1" data-name="Layer 1" viewBox="0 0 100 100" width="53.0816" height="53.0816"><circle cx="50" cy="50" r="50" fill="#2C0705"/></svg></g><g transform="translate(318.49,&#10;                                318.49) rotate(270, 26.5408, 26.5408)"><svg xmlns="http://www.w3.org/2000/svg" id="Layer_1" data-name="Layer 1" viewBox="0 0 100 100" width="53.0816" height="53.0816"><path d="M50,100h0A50,50,0,0,1,0,50V0H100V50A50,50,0,0,1,50,100Z" fill="#DEAD7F"/></svg></g><g transform="translate(371.57,&#10;                                318.49) rotate(270, 26.5408, 26.5408)"><svg xmlns="http://www.w3.org/2000/svg" id="Layer_1" data-name="Layer 1" viewBox="0 0 100 100" width="53.0816" height="53.0816"><path d="M50,0a50,50,0,0,0,0,100h50V50A50.005,50.005,0,0,0,50,0ZM75,75H50A25,25,0,1,1,75,50Z" fill="#D0BDB0"/></svg></g><g transform="translate(318.49,&#10;                                371.57) rotate(270, 26.5408, 26.5408)"><svg xmlns="http://www.w3.org/2000/svg" id="Layer_1" data-name="Layer 1" viewBox="0 0 100 100" width="53.0816" height="53.0816"><path d="M50,0a50,50,0,0,0,0,100h50V50A50.005,50.005,0,0,0,50,0ZM75,75H50A25,25,0,1,1,75,50Z" fill="#D0BDB0"/></svg></g><g transform="translate(371.57,&#10;                                371.57) rotate(270, 26.5408, 26.5408)"><svg xmlns="http://www.w3.org/2000/svg" id="Layer_1" data-name="Layer 1" viewBox="0 0 100 100" width="53.0816" height="53.0816"><path d="M100,100A50,50,0,0,0,0,100Z" fill="#eee9e9"/></svg></g><g transform="translate(477.73,&#10;                                318.49) rotate(270, 26.5408, 26.5408)"><svg xmlns="http://www.w3.org/2000/svg" id="Layer_1" data-name="Layer 1" viewBox="0 0 100 100" width="53.0816" height="53.0816"><path d="M50,100h0A50,50,0,0,1,0,50V0H100V50A50,50,0,0,1,50,100Z" fill="#DEAD7F"/></svg></g><g transform="translate(477.73,&#10;                                371.57) rotate(180, 26.5408, 26.5408)"><svg xmlns="http://www.w3.org/2000/svg" id="Layer_1" data-name="Layer 1" viewBox="0 0 100 100" width="53.0816" height="53.0816"><path d="M100,100A50,50,0,0,0,0,100Z" fill="#eee9e9"/></svg></g></g><g><g transform="translate(0.00,&#10;                                424.65) rotate(0, 26.5408, 26.5408)"><svg xmlns="http://www.w3.org/2000/svg" id="Layer_1" data-name="Layer 1" viewBox="0 0 100 100" width="53.0816" height="53.0816"><path d="M100,100A50,50,0,0,0,0,100Z" fill="#eee9e9"/></svg></g><g transform="translate(53.08,&#10;                                424.65) rotate(90, 26.5408, 26.5408)"><svg xmlns="http://www.w3.org/2000/svg" id="Layer_1" data-name="Layer 1" viewBox="0 0 100 100" width="53.0816" height="53.0816"><path d="M100,100A50,50,0,0,0,0,100Z" fill="#eee9e9"/></svg></g><g transform="translate(0.00,&#10;                                477.73) rotate(0, 26.5408, 26.5408)"><svg xmlns="http://www.w3.org/2000/svg" id="Layer_1" data-name="Layer 1" viewBox="0 0 100 100" width="53.0816" height="53.0816"><circle cx="50" cy="50" r="50" fill="#2C0705"/></svg></g><g transform="translate(53.08,&#10;                                477.73) rotate(270, 26.5408, 26.5408)"><svg xmlns="http://www.w3.org/2000/svg" id="Layer_1" data-name="Layer 1" viewBox="0 0 100 100" width="53.0816" height="53.0816"><circle cx="50" cy="50" r="50" fill="#2C0705"/></svg></g><g transform="translate(106.16,&#10;                                424.65) rotate(270, 26.5408, 26.5408)"><svg xmlns="http://www.w3.org/2000/svg" id="Layer_1" data-name="Layer 1" viewBox="0 0 100 100" width="53.0816" height="53.0816"><path d="M50,100h0A50,50,0,0,1,0,50V0H100V50A50,50,0,0,1,50,100Z" fill="#DEAD7F"/></svg></g><g transform="translate(159.24,&#10;                                424.65) rotate(0, 26.5408, 26.5408)"><svg xmlns="http://www.w3.org/2000/svg" id="Layer_1" data-name="Layer 1" viewBox="0 0 100 100" width="53.0816" height="53.0816"><path d="M100,100A50,50,0,0,0,0,100Z" fill="#eee9e9"/></svg></g><g transform="translate(106.16,&#10;                                477.73) rotate(0, 26.5408, 26.5408)"><svg xmlns="http://www.w3.org/2000/svg" id="Layer_1" data-name="Layer 1" viewBox="0 0 100 100" width="53.0816" height="53.0816"><path d="M50,0a50,50,0,0,0,0,100h50V50A50.005,50.005,0,0,0,50,0ZM75,75H50A25,25,0,1,1,75,50Z" fill="#D0BDB0"/></svg></g><g transform="translate(159.24,&#10;                                477.73) rotate(0, 26.5408, 26.5408)"><svg xmlns="http://www.w3.org/2000/svg" id="Layer_1" data-name="Layer 1" viewBox="0 0 100 100" width="53.0816" height="53.0816"><path d="M100,100A50,50,0,0,0,0,100Z" fill="#eee9e9"/></svg></g><g transform="translate(265.41,&#10;                                477.73) rotate(270, 26.5408, 26.5408)"><svg xmlns="http://www.w3.org/2000/svg" id="Layer_1" data-name="Layer 1" viewBox="0 0 100 100" width="53.0816" height="53.0816"><circle cx="50" cy="50" r="50" fill="#2C0705"/></svg></g><g transform="translate(318.49,&#10;                                424.65) rotate(0, 26.5408, 26.5408)"><svg xmlns="http://www.w3.org/2000/svg" id="Layer_1" data-name="Layer 1" viewBox="0 0 100 100" width="53.0816" height="53.0816"><path d="M50,0a50,50,0,0,0,0,100h50V50A50.005,50.005,0,0,0,50,0ZM75,75H50A25,25,0,1,1,75,50Z" fill="#D0BDB0"/></svg></g><g transform="translate(371.57,&#10;                                424.65) rotate(270, 26.5408, 26.5408)"><svg xmlns="http://www.w3.org/2000/svg" id="Layer_1" data-name="Layer 1" viewBox="0 0 100 100" width="53.0816" height="53.0816"><path d="M50,0a50,50,0,0,0,0,100h50V50A50.005,50.005,0,0,0,50,0ZM75,75H50A25,25,0,1,1,75,50Z" fill="#D0BDB0"/></svg></g><g transform="translate(318.49,&#10;                                477.73) rotate(270, 26.5408, 26.5408)"><svg xmlns="http://www.w3.org/2000/svg" id="Layer_1" data-name="Layer 1" viewBox="0 0 100 100" width="53.0816" height="53.0816"><path d="M50,0a50,50,0,0,0,0,100h50V50A50.005,50.005,0,0,0,50,0ZM75,75H50A25,25,0,1,1,75,50Z" fill="#D0BDB0"/></svg></g><g transform="translate(371.57,&#10;                                477.73) rotate(180, 26.5408, 26.5408)"><svg xmlns="http://www.w3.org/2000/svg" id="Layer_1" data-name="Layer 1" viewBox="0 0 100 100" width="53.0816" height="53.0816"><circle cx="50" cy="50" r="50" fill="#2C0705"/></svg></g><g transform="translate(424.65,&#10;                                424.65) rotate(0, 26.5408, 26.5408)"><svg xmlns="http://www.w3.org/2000/svg" id="Layer_1" data-name="Layer 1" viewBox="0 0 100 100" width="53.0816" height="53.0816"><path d="M50,0a50,50,0,0,0,0,100h50V50A50.005,50.005,0,0,0,50,0ZM75,75H50A25,25,0,1,1,75,50Z" fill="#D0BDB0"/></svg></g><g transform="translate(477.73,&#10;                                424.65) rotate(90, 26.5408, 26.5408)"><svg xmlns="http://www.w3.org/2000/svg" id="Layer_1" data-name="Layer 1" viewBox="0 0 100 100" width="53.0816" height="53.0816"><path d="M100,100A50,50,0,0,0,0,100Z" fill="#eee9e9"/></svg></g><g transform="translate(477.73,&#10;                                477.73) rotate(0, 26.5408, 26.5408)"><svg xmlns="http://www.w3.org/2000/svg" id="Layer_1" data-name="Layer 1" viewBox="0 0 100 100" width="53.0816" height="53.0816"><circle cx="50" cy="50" r="50" fill="#2C0705"/></svg></g></g><g><g transform="translate(0.00,&#10;                                530.82) rotate(0, 26.5408, 26.5408)"><svg xmlns="http://www.w3.org/2000/svg" id="Layer_1" data-name="Layer 1" viewBox="0 0 100 100" width="53.0816" height="53.0816"><path d="M50,100h0A50,50,0,0,1,0,50V0H100V50A50,50,0,0,1,50,100Z" fill="#DEAD7F"/></svg></g><g transform="translate(53.08,&#10;                                530.82) rotate(90, 26.5408, 26.5408)"><svg xmlns="http://www.w3.org/2000/svg" id="Layer_1" data-name="Layer 1" viewBox="0 0 100 100" width="53.0816" height="53.0816"><path d="M100,100A50,50,0,0,0,0,100Z" fill="#eee9e9"/></svg></g><g transform="translate(0.00,&#10;                                583.90) rotate(270, 26.5408, 26.5408)"><svg xmlns="http://www.w3.org/2000/svg" id="Layer_1" data-name="Layer 1" viewBox="0 0 100 100" width="53.0816" height="53.0816"><path d="M50,0a50,50,0,0,0,0,100h50V50A50.005,50.005,0,0,0,50,0ZM75,75H50A25,25,0,1,1,75,50Z" fill="#D0BDB0"/></svg></g><g transform="translate(53.08,&#10;                                583.90) rotate(90, 26.5408, 26.5408)"><svg xmlns="http://www.w3.org/2000/svg" id="Layer_1" data-name="Layer 1" viewBox="0 0 100 100" width="53.0816" height="53.0816"><path d="M100,100A50,50,0,0,0,0,100Z" fill="#eee9e9"/></svg></g><g transform="translate(106.16,&#10;                                530.82) rotate(180, 26.5408, 26.5408)"><svg xmlns="http://www.w3.org/2000/svg" id="Layer_1" data-name="Layer 1" viewBox="0 0 100 100" width="53.0816" height="53.0816"><path d="M50,0a50,50,0,0,0,0,100h50V50A50.005,50.005,0,0,0,50,0ZM75,75H50A25,25,0,1,1,75,50Z" fill="#D0BDB0"/></svg></g><g transform="translate(159.24,&#10;                                583.90) rotate(270, 26.5408, 26.5408)"><svg xmlns="http://www.w3.org/2000/svg" id="Layer_1" data-name="Layer 1" viewBox="0 0 100 100" width="53.0816" height="53.0816"><circle cx="50" cy="50" r="50" fill="#2C0705"/></svg></g><g transform="translate(212.33,&#10;                                530.82) rotate(0, 26.5408, 26.5408)"><svg xmlns="http://www.w3.org/2000/svg" id="Layer_1" data-name="Layer 1" viewBox="0 0 100 100" width="53.0816" height="53.0816"><path d="M50,100h0A50,50,0,0,1,0,50V0H100V50A50,50,0,0,1,50,100Z" fill="#DEAD7F"/></svg></g><g transform="translate(265.41,&#10;                                530.82) rotate(90, 26.5408, 26.5408)"><svg xmlns="http://www.w3.org/2000/svg" id="Layer_1" data-name="Layer 1" viewBox="0 0 100 100" width="53.0816" height="53.0816"><path d="M50,0a50,50,0,0,0,0,100h50V50A50.005,50.005,0,0,0,50,0ZM75,75H50A25,25,0,1,1,75,50Z" fill="#D0BDB0"/></svg></g><g transform="translate(265.41,&#10;                                583.90) rotate(0, 26.5408, 26.5408)"><svg xmlns="http://www.w3.org/2000/svg" id="Layer_1" data-name="Layer 1" viewBox="0 0 100 100" width="53.0816" height="53.0816"><path d="M100,100A50,50,0,0,0,0,100Z" fill="#eee9e9"/></svg></g><g transform="translate(318.49,&#10;                                583.90) rotate(90, 26.5408, 26.5408)"><svg xmlns="http://www.w3.org/2000/svg" id="Layer_1" data-name="Layer 1" viewBox="0 0 100 100" width="53.0816" height="53.0816"><circle cx="50" cy="50" r="50" fill="#2C0705"/></svg></g><g transform="translate(371.57,&#10;                                583.90) rotate(0, 26.5408, 26.5408)"><svg xmlns="http://www.w3.org/2000/svg" id="Layer_1" data-name="Layer 1" viewBox="0 0 100 100" width="53.0816" height="53.0816"><path d="M100,100A50,50,0,0,0,0,100Z" fill="#eee9e9"/></svg></g><g transform="translate(424.65,&#10;                                530.82) rotate(270, 26.5408, 26.5408)"><svg xmlns="http://www.w3.org/2000/svg" id="Layer_1" data-name="Layer 1" viewBox="0 0 100 100" width="53.0816" height="53.0816"><path d="M50,0a50,50,0,0,0,0,100h50V50A50.005,50.005,0,0,0,50,0ZM75,75H50A25,25,0,1,1,75,50Z" fill="#D0BDB0"/></svg></g><g transform="translate(477.73,&#10;                                583.90) rotate(90, 26.5408, 26.5408)"><svg xmlns="http://www.w3.org/2000/svg" id="Layer_1" data-name="Layer 1" viewBox="0 0 100 100" width="53.0816" height="53.0816"><path d="M100,100A50,50,0,0,0,0,100Z" fill="#eee9e9"/></svg></g></g><g><g transform="translate(53.08,&#10;                                636.98) rotate(0, 26.5408, 26.5408)"><svg xmlns="http://www.w3.org/2000/svg" id="Layer_1" data-name="Layer 1" viewBox="0 0 100 100" width="53.0816" height="53.0816"><path d="M100,100A50,50,0,0,0,0,100Z" fill="#eee9e9"/></svg></g><g transform="translate(0.00,&#10;                                690.06) rotate(0, 26.5408, 26.5408)"><svg xmlns="http://www.w3.org/2000/svg" id="Layer_1" data-name="Layer 1" viewBox="0 0 100 100" width="53.0816" height="53.0816"><path d="M50,0a50,50,0,0,0,0,100h50V50A50.005,50.005,0,0,0,50,0ZM75,75H50A25,25,0,1,1,75,50Z" fill="#D0BDB0"/></svg></g><g transform="translate(53.08,&#10;                                690.06) rotate(270, 26.5408, 26.5408)"><svg xmlns="http://www.w3.org/2000/svg" id="Layer_1" data-name="Layer 1" viewBox="0 0 100 100" width="53.0816" height="53.0816"><circle cx="50" cy="50" r="50" fill="#2C0705"/></svg></g><g transform="translate(106.16,&#10;                                636.98) rotate(0, 26.5408, 26.5408)"><svg xmlns="http://www.w3.org/2000/svg" id="Layer_1" data-name="Layer 1" viewBox="0 0 100 100" width="53.0816" height="53.0816"><path d="M100,100A50,50,0,0,0,0,100Z" fill="#eee9e9"/></svg></g><g transform="translate(159.24,&#10;                                636.98) rotate(0, 26.5408, 26.5408)"><svg xmlns="http://www.w3.org/2000/svg" id="Layer_1" data-name="Layer 1" viewBox="0 0 100 100" width="53.0816" height="53.0816"><path d="M50,0a50,50,0,0,0,0,100h50V50A50.005,50.005,0,0,0,50,0ZM75,75H50A25,25,0,1,1,75,50Z" fill="#D0BDB0"/></svg></g><g transform="translate(159.24,&#10;                                690.06) rotate(180, 26.5408, 26.5408)"><svg xmlns="http://www.w3.org/2000/svg" id="Layer_1" data-name="Layer 1" viewBox="0 0 100 100" width="53.0816" height="53.0816"><circle cx="50" cy="50" r="50" fill="#2C0705"/></svg></g><g transform="translate(212.33,&#10;                                636.98) rotate(0, 26.5408, 26.5408)"><svg xmlns="http://www.w3.org/2000/svg" id="Layer_1" data-name="Layer 1" viewBox="0 0 100 100" width="53.0816" height="53.0816"><path d="M50,100h0A50,50,0,0,1,0,50V0H100V50A50,50,0,0,1,50,100Z" fill="#DEAD7F"/></svg></g><g transform="translate(265.41,&#10;                                690.06) rotate(180, 26.5408, 26.5408)"><svg xmlns="http://www.w3.org/2000/svg" id="Layer_1" data-name="Layer 1" viewBox="0 0 100 100" width="53.0816" height="53.0816"><circle cx="50" cy="50" r="50" fill="#2C0705"/></svg></g><g transform="translate(318.49,&#10;                                636.98) rotate(270, 26.5408, 26.5408)"><svg xmlns="http://www.w3.org/2000/svg" id="Layer_1" data-name="Layer 1" viewBox="0 0 100 100" width="53.0816" height="53.0816"><path d="M50,100h0A50,50,0,0,1,0,50V0H100V50A50,50,0,0,1,50,100Z" fill="#DEAD7F"/></svg></g><g transform="translate(371.57,&#10;                                636.98) rotate(270, 26.5408, 26.5408)"><svg xmlns="http://www.w3.org/2000/svg" id="Layer_1" data-name="Layer 1" viewBox="0 0 100 100" width="53.0816" height="53.0816"><path d="M100,100A50,50,0,0,0,0,100Z" fill="#eee9e9"/></svg></g><g transform="translate(371.57,&#10;                                690.06) rotate(90, 26.5408, 26.5408)"><svg xmlns="http://www.w3.org/2000/svg" id="Layer_1" data-name="Layer 1" viewBox="0 0 100 100" width="53.0816" height="53.0816"><circle cx="50" cy="50" r="50" fill="#2C0705"/></svg></g><g transform="translate(424.65,&#10;                                636.98) rotate(270, 26.5408, 26.5408)"><svg xmlns="http://www.w3.org/2000/svg" id="Layer_1" data-name="Layer 1" viewBox="0 0 100 100" width="53.0816" height="53.0816"><path d="M50,0a50,50,0,0,0,0,100h50V50A50.005,50.005,0,0,0,50,0ZM75,75H50A25,25,0,1,1,75,50Z" fill="#D0BDB0"/></svg></g><g transform="translate(477.73,&#10;                                690.06) rotate(90, 26.5408, 26.5408)"><svg xmlns="http://www.w3.org/2000/svg" id="Layer_1" data-name="Layer 1" viewBox="0 0 100 100" width="53.0816" height="53.0816"><circle cx="50" cy="50" r="50" fill="#2C0705"/></svg></g></g></svg>