<svg xmlns="http://www.w3.org/2000/svg" viewBox="0 0 1013.76 570.24"><rect width="1013.76" height="570.24" fill="#eee9e9" id="bg" class="bg"/><g><g transform="translate(0.00,&#10;                                0.00) rotate(0, 33.792, 33.792)"><svg xmlns="http://www.w3.org/2000/svg" id="Layer_1" data-name="Layer 1" viewBox="0 0 100 100" width="67.584" height="67.584"><path d="M50,100a50,50,0,1,1,50-50v50Z" fill="#2C0705"/></svg></g><g transform="translate(0.00,&#10;                                135.17) rotate(90, 33.792, 33.792)"><svg xmlns="http://www.w3.org/2000/svg" id="Layer_1" data-name="Layer 1" viewBox="0 0 100 100" width="67.584" height="67.584"><path d="M50,100a50,50,0,1,1,50-50v50Z" fill="#2C0705"/></svg></g><g transform="translate(67.58,&#10;                                135.17) rotate(180, 33.792, 33.792)"><svg xmlns="http://www.w3.org/2000/svg" id="Layer_1" data-name="Layer 1" viewBox="0 0 100 100" width="67.584" height="67.584"><path d="M50,100a50,50,0,1,1,50-50v50Z" fill="#2C0705"/></svg></g><g transform="translate(202.75,&#10;                                0.00) rotate(180, 33.792, 33.792)"><svg xmlns="http://www.w3.org/2000/svg" id="Layer_1" data-name="Layer 1" viewBox="0 0 100 100" width="67.584" height="67.584"><path d="M100,100A50,50,0,0,0,0,100Z" fill="#D0BDB0"/></svg></g><g transform="translate(202.75,&#10;                                67.58) rotate(90, 33.792, 33.792)"><svg xmlns="http://www.w3.org/2000/svg" id="Layer_1" data-name="Layer 1" viewBox="0 0 100 100" width="67.584" height="67.584"><circle cx="50" cy="50" r="50" fill="#DEAD7F"/></svg></g><g transform="translate(135.17,&#10;                                135.17) rotate(0, 33.792, 33.792)"><svg xmlns="http://www.w3.org/2000/svg" id="Layer_1" data-name="Layer 1" viewBox="0 0 100 100" width="67.584" height="67.584"><path d="M50,100a50,50,0,1,1,50-50v50Z" fill="#2C0705"/></svg></g><g transform="translate(202.75,&#10;                                135.17) rotate(0, 33.792, 33.792)"><svg xmlns="http://www.w3.org/2000/svg" id="Layer_1" data-name="Layer 1" viewBox="0 0 100 100" width="67.584" height="67.584"><path d="M50,0a50,50,0,0,0,0,100h50V50A50.005,50.005,0,0,0,50,0ZM75,75H50A25,25,0,1,1,75,50Z" fill="#1D2044FF"/></svg></g><g transform="translate(270.34,&#10;                                0.00) rotate(90, 33.792, 33.792)"><svg xmlns="http://www.w3.org/2000/svg" id="Layer_1" data-name="Layer 1" viewBox="0 0 100 100" width="67.584" height="67.584"><path d="M100,100A50,50,0,0,0,0,100Z" fill="#D0BDB0"/></svg></g><g transform="translate(270.34,&#10;                                67.58) rotate(90, 33.792, 33.792)"><svg xmlns="http://www.w3.org/2000/svg" id="Layer_1" data-name="Layer 1" viewBox="0 0 100 100" width="67.584" height="67.584"><path d="M50,0a50,50,0,0,0,0,100h50V50A50.005,50.005,0,0,0,50,0ZM75,75H50A25,25,0,1,1,75,50Z" fill="#1D2044FF"/></svg></g><g transform="translate(337.92,&#10;                                135.17) rotate(0, 33.792, 33.792)"><svg xmlns="http://www.w3.org/2000/svg" id="Layer_1" data-name="Layer 1" viewBox="0 0 100 100" width="67.584" height="67.584"><circle cx="50" cy="50" r="50" fill="#DEAD7F"/></svg></g><g transform="translate(405.50,&#10;                                135.17) rotate(180, 33.792, 33.792)"><svg xmlns="http://www.w3.org/2000/svg" id="Layer_1" data-name="Layer 1" viewBox="0 0 100 100" width="67.584" height="67.584"><path d="M100,100A50,50,0,0,0,0,100Z" fill="#D0BDB0"/></svg></g><g transform="translate(473.09,&#10;                                135.17) rotate(0, 33.792, 33.792)"><svg xmlns="http://www.w3.org/2000/svg" id="Layer_1" data-name="Layer 1" viewBox="0 0 100 100" width="67.584" height="67.584"><circle cx="50" cy="50" r="50" fill="#DEAD7F"/></svg></g><g transform="translate(540.67,&#10;                                0.00) rotate(270, 33.792, 33.792)"><svg xmlns="http://www.w3.org/2000/svg" id="Layer_1" data-name="Layer 1" viewBox="0 0 100 100" width="67.584" height="67.584"><path d="M100,100A50,50,0,0,0,0,100Z" fill="#D0BDB0"/></svg></g><g transform="translate(608.26,&#10;                                135.17) rotate(270, 33.792, 33.792)"><svg xmlns="http://www.w3.org/2000/svg" id="Layer_1" data-name="Layer 1" viewBox="0 0 100 100" width="67.584" height="67.584"><circle cx="50" cy="50" r="50" fill="#DEAD7F"/></svg></g><g transform="translate(675.84,&#10;                                0.00) rotate(180, 33.792, 33.792)"><svg xmlns="http://www.w3.org/2000/svg" id="Layer_1" data-name="Layer 1" viewBox="0 0 100 100" width="67.584" height="67.584"><path d="M50,100a50,50,0,1,1,50-50v50Z" fill="#2C0705"/></svg></g><g transform="translate(675.84,&#10;                                135.17) rotate(0, 33.792, 33.792)"><svg xmlns="http://www.w3.org/2000/svg" id="Layer_1" data-name="Layer 1" viewBox="0 0 100 100" width="67.584" height="67.584"><path d="M100,100A50,50,0,0,0,0,100Z" fill="#D0BDB0"/></svg></g><g transform="translate(743.42,&#10;                                135.17) rotate(270, 33.792, 33.792)"><svg xmlns="http://www.w3.org/2000/svg" id="Layer_1" data-name="Layer 1" viewBox="0 0 100 100" width="67.584" height="67.584"><path d="M50,0a50,50,0,0,0,0,100h50V50A50.005,50.005,0,0,0,50,0ZM75,75H50A25,25,0,1,1,75,50Z" fill="#1D2044FF"/></svg></g><g transform="translate(878.59,&#10;                                67.58) rotate(270, 33.792, 33.792)"><svg xmlns="http://www.w3.org/2000/svg" id="Layer_1" data-name="Layer 1" viewBox="0 0 100 100" width="67.584" height="67.584"><path d="M100,100A50,50,0,0,0,0,100Z" fill="#D0BDB0"/></svg></g><g transform="translate(878.59,&#10;                                135.17) rotate(270, 33.792, 33.792)"><svg xmlns="http://www.w3.org/2000/svg" id="Layer_1" data-name="Layer 1" viewBox="0 0 100 100" width="67.584" height="67.584"><path d="M50,0a50,50,0,0,0,0,100h50V50A50.005,50.005,0,0,0,50,0ZM75,75H50A25,25,0,1,1,75,50Z" fill="#1D2044FF"/></svg></g><g transform="translate(946.18,&#10;                                135.17) rotate(180, 33.792, 33.792)"><svg xmlns="http://www.w3.org/2000/svg" id="Layer_1" data-name="Layer 1" viewBox="0 0 100 100" width="67.584" height="67.584"><path d="M100,100A50,50,0,0,0,0,100Z" fill="#D0BDB0"/></svg></g><g transform="translate(1013.76,&#10;                                135.17) rotate(90, 33.792, 33.792)"><svg xmlns="http://www.w3.org/2000/svg" id="Layer_1" data-name="Layer 1" viewBox="0 0 100 100" width="67.584" height="67.584"><path d="M50,100a50,50,0,1,1,50-50v50Z" fill="#2C0705"/></svg></g></g><g><g transform="translate(0.00,&#10;                                202.75) rotate(90, 33.792, 33.792)"><svg xmlns="http://www.w3.org/2000/svg" id="Layer_1" data-name="Layer 1" viewBox="0 0 100 100" width="67.584" height="67.584"><path d="M50,100a50,50,0,1,1,50-50v50Z" fill="#2C0705"/></svg></g><g transform="translate(67.58,&#10;                                337.92) rotate(0, 33.792, 33.792)"><svg xmlns="http://www.w3.org/2000/svg" id="Layer_1" data-name="Layer 1" viewBox="0 0 100 100" width="67.584" height="67.584"><path d="M50,100a50,50,0,1,1,50-50v50Z" fill="#2C0705"/></svg></g><g transform="translate(135.17,&#10;                                202.75) rotate(180, 33.792, 33.792)"><svg xmlns="http://www.w3.org/2000/svg" id="Layer_1" data-name="Layer 1" viewBox="0 0 100 100" width="67.584" height="67.584"><path d="M50,100a50,50,0,1,1,50-50v50Z" fill="#2C0705"/></svg></g><g transform="translate(202.75,&#10;                                270.34) rotate(180, 33.792, 33.792)"><svg xmlns="http://www.w3.org/2000/svg" id="Layer_1" data-name="Layer 1" viewBox="0 0 100 100" width="67.584" height="67.584"><path d="M100,100A50,50,0,0,0,0,100Z" fill="#D0BDB0"/></svg></g><g transform="translate(202.75,&#10;                                337.92) rotate(0, 33.792, 33.792)"><svg xmlns="http://www.w3.org/2000/svg" id="Layer_1" data-name="Layer 1" viewBox="0 0 100 100" width="67.584" height="67.584"><circle cx="50" cy="50" r="50" fill="#DEAD7F"/></svg></g><g transform="translate(337.92,&#10;                                337.92) rotate(90, 33.792, 33.792)"><svg xmlns="http://www.w3.org/2000/svg" id="Layer_1" data-name="Layer 1" viewBox="0 0 100 100" width="67.584" height="67.584"><circle cx="50" cy="50" r="50" fill="#DEAD7F"/></svg></g><g transform="translate(473.09,&#10;                                202.75) rotate(90, 33.792, 33.792)"><svg xmlns="http://www.w3.org/2000/svg" id="Layer_1" data-name="Layer 1" viewBox="0 0 100 100" width="67.584" height="67.584"><path d="M100,100A50,50,0,0,0,0,100Z" fill="#D0BDB0"/></svg></g><g transform="translate(473.09,&#10;                                270.34) rotate(180, 33.792, 33.792)"><svg xmlns="http://www.w3.org/2000/svg" id="Layer_1" data-name="Layer 1" viewBox="0 0 100 100" width="67.584" height="67.584"><path d="M100,100A50,50,0,0,0,0,100Z" fill="#D0BDB0"/></svg></g><g transform="translate(473.09,&#10;                                337.92) rotate(270, 33.792, 33.792)"><svg xmlns="http://www.w3.org/2000/svg" id="Layer_1" data-name="Layer 1" viewBox="0 0 100 100" width="67.584" height="67.584"><path d="M50,100a50,50,0,1,1,50-50v50Z" fill="#2C0705"/></svg></g><g transform="translate(540.67,&#10;                                202.75) rotate(0, 33.792, 33.792)"><svg xmlns="http://www.w3.org/2000/svg" id="Layer_1" data-name="Layer 1" viewBox="0 0 100 100" width="67.584" height="67.584"><path d="M50,100a50,50,0,1,1,50-50v50Z" fill="#2C0705"/></svg></g><g transform="translate(540.67,&#10;                                337.92) rotate(270, 33.792, 33.792)"><svg xmlns="http://www.w3.org/2000/svg" id="Layer_1" data-name="Layer 1" viewBox="0 0 100 100" width="67.584" height="67.584"><path d="M100,100A50,50,0,0,0,0,100Z" fill="#D0BDB0"/></svg></g><g transform="translate(608.26,&#10;                                337.92) rotate(0, 33.792, 33.792)"><svg xmlns="http://www.w3.org/2000/svg" id="Layer_1" data-name="Layer 1" viewBox="0 0 100 100" width="67.584" height="67.584"><circle cx="50" cy="50" r="50" fill="#DEAD7F"/></svg></g><g transform="translate(675.84,&#10;                                202.75) rotate(90, 33.792, 33.792)"><svg xmlns="http://www.w3.org/2000/svg" id="Layer_1" data-name="Layer 1" viewBox="0 0 100 100" width="67.584" height="67.584"><path d="M50,100a50,50,0,1,1,50-50v50Z" fill="#2C0705"/></svg></g><g transform="translate(743.42,&#10;                                337.92) rotate(180, 33.792, 33.792)"><svg xmlns="http://www.w3.org/2000/svg" id="Layer_1" data-name="Layer 1" viewBox="0 0 100 100" width="67.584" height="67.584"><path d="M100,100A50,50,0,0,0,0,100Z" fill="#D0BDB0"/></svg></g><g transform="translate(811.01,&#10;                                202.75) rotate(0, 33.792, 33.792)"><svg xmlns="http://www.w3.org/2000/svg" id="Layer_1" data-name="Layer 1" viewBox="0 0 100 100" width="67.584" height="67.584"><path d="M100,100A50,50,0,0,0,0,100Z" fill="#D0BDB0"/></svg></g><g transform="translate(878.59,&#10;                                270.34) rotate(180, 33.792, 33.792)"><svg xmlns="http://www.w3.org/2000/svg" id="Layer_1" data-name="Layer 1" viewBox="0 0 100 100" width="67.584" height="67.584"><circle cx="50" cy="50" r="50" fill="#DEAD7F"/></svg></g><g transform="translate(878.59,&#10;                                337.92) rotate(90, 33.792, 33.792)"><svg xmlns="http://www.w3.org/2000/svg" id="Layer_1" data-name="Layer 1" viewBox="0 0 100 100" width="67.584" height="67.584"><path d="M50,100a50,50,0,1,1,50-50v50Z" fill="#2C0705"/></svg></g><g transform="translate(946.18,&#10;                                202.75) rotate(90, 33.792, 33.792)"><svg xmlns="http://www.w3.org/2000/svg" id="Layer_1" data-name="Layer 1" viewBox="0 0 100 100" width="67.584" height="67.584"><path d="M50,100a50,50,0,1,1,50-50v50Z" fill="#2C0705"/></svg></g><g transform="translate(946.18,&#10;                                270.34) rotate(180, 33.792, 33.792)"><svg xmlns="http://www.w3.org/2000/svg" id="Layer_1" data-name="Layer 1" viewBox="0 0 100 100" width="67.584" height="67.584"><path d="M50,0a50,50,0,0,0,0,100h50V50A50.005,50.005,0,0,0,50,0ZM75,75H50A25,25,0,1,1,75,50Z" fill="#1D2044FF"/></svg></g><g transform="translate(1013.76,&#10;                                337.92) rotate(90, 33.792, 33.792)"><svg xmlns="http://www.w3.org/2000/svg" id="Layer_1" data-name="Layer 1" viewBox="0 0 100 100" width="67.584" height="67.584"><circle cx="50" cy="50" r="50" fill="#DEAD7F"/></svg></g></g><g><g transform="translate(0.00,&#10;                                405.50) rotate(180, 33.792, 33.792)"><svg xmlns="http://www.w3.org/2000/svg" id="Layer_1" data-name="Layer 1" viewBox="0 0 100 100" width="67.584" height="67.584"><path d="M50,100a50,50,0,1,1,50-50v50Z" fill="#2C0705"/></svg></g><g transform="translate(67.58,&#10;                                473.09) rotate(0, 33.792, 33.792)"><svg xmlns="http://www.w3.org/2000/svg" id="Layer_1" data-name="Layer 1" viewBox="0 0 100 100" width="67.584" height="67.584"><circle cx="50" cy="50" r="50" fill="#DEAD7F"/></svg></g><g transform="translate(67.58,&#10;                                540.67) rotate(90, 33.792, 33.792)"><svg xmlns="http://www.w3.org/2000/svg" id="Layer_1" data-name="Layer 1" viewBox="0 0 100 100" width="67.584" height="67.584"><path d="M50,100a50,50,0,1,1,50-50v50Z" fill="#2C0705"/></svg></g><g transform="translate(202.75,&#10;                                405.50) rotate(270, 33.792, 33.792)"><svg xmlns="http://www.w3.org/2000/svg" id="Layer_1" data-name="Layer 1" viewBox="0 0 100 100" width="67.584" height="67.584"><path d="M100,100A50,50,0,0,0,0,100Z" fill="#D0BDB0"/></svg></g><g transform="translate(202.75,&#10;                                540.67) rotate(180, 33.792, 33.792)"><svg xmlns="http://www.w3.org/2000/svg" id="Layer_1" data-name="Layer 1" viewBox="0 0 100 100" width="67.584" height="67.584"><path d="M100,100A50,50,0,0,0,0,100Z" fill="#D0BDB0"/></svg></g><g transform="translate(337.92,&#10;                                540.67) rotate(270, 33.792, 33.792)"><svg xmlns="http://www.w3.org/2000/svg" id="Layer_1" data-name="Layer 1" viewBox="0 0 100 100" width="67.584" height="67.584"><path d="M50,100a50,50,0,1,1,50-50v50Z" fill="#2C0705"/></svg></g><g transform="translate(405.50,&#10;                                405.50) rotate(180, 33.792, 33.792)"><svg xmlns="http://www.w3.org/2000/svg" id="Layer_1" data-name="Layer 1" viewBox="0 0 100 100" width="67.584" height="67.584"><path d="M50,100a50,50,0,1,1,50-50v50Z" fill="#2C0705"/></svg></g><g transform="translate(473.09,&#10;                                405.50) rotate(270, 33.792, 33.792)"><svg xmlns="http://www.w3.org/2000/svg" id="Layer_1" data-name="Layer 1" viewBox="0 0 100 100" width="67.584" height="67.584"><path d="M100,100A50,50,0,0,0,0,100Z" fill="#D0BDB0"/></svg></g><g transform="translate(405.50,&#10;                                473.09) rotate(270, 33.792, 33.792)"><svg xmlns="http://www.w3.org/2000/svg" id="Layer_1" data-name="Layer 1" viewBox="0 0 100 100" width="67.584" height="67.584"><path d="M50,0a50,50,0,0,0,0,100h50V50A50.005,50.005,0,0,0,50,0ZM75,75H50A25,25,0,1,1,75,50Z" fill="#1D2044FF"/></svg></g><g transform="translate(473.09,&#10;                                473.09) rotate(180, 33.792, 33.792)"><svg xmlns="http://www.w3.org/2000/svg" id="Layer_1" data-name="Layer 1" viewBox="0 0 100 100" width="67.584" height="67.584"><circle cx="50" cy="50" r="50" fill="#DEAD7F"/></svg></g><g transform="translate(473.09,&#10;                                540.67) rotate(270, 33.792, 33.792)"><svg xmlns="http://www.w3.org/2000/svg" id="Layer_1" data-name="Layer 1" viewBox="0 0 100 100" width="67.584" height="67.584"><path d="M100,100A50,50,0,0,0,0,100Z" fill="#D0BDB0"/></svg></g><g transform="translate(540.67,&#10;                                405.50) rotate(0, 33.792, 33.792)"><svg xmlns="http://www.w3.org/2000/svg" id="Layer_1" data-name="Layer 1" viewBox="0 0 100 100" width="67.584" height="67.584"><path d="M100,100A50,50,0,0,0,0,100Z" fill="#D0BDB0"/></svg></g><g transform="translate(608.26,&#10;                                540.67) rotate(0, 33.792, 33.792)"><svg xmlns="http://www.w3.org/2000/svg" id="Layer_1" data-name="Layer 1" viewBox="0 0 100 100" width="67.584" height="67.584"><path d="M50,0a50,50,0,0,0,0,100h50V50A50.005,50.005,0,0,0,50,0ZM75,75H50A25,25,0,1,1,75,50Z" fill="#1D2044FF"/></svg></g><g transform="translate(743.42,&#10;                                540.67) rotate(270, 33.792, 33.792)"><svg xmlns="http://www.w3.org/2000/svg" id="Layer_1" data-name="Layer 1" viewBox="0 0 100 100" width="67.584" height="67.584"><path d="M100,100A50,50,0,0,0,0,100Z" fill="#D0BDB0"/></svg></g><g transform="translate(811.01,&#10;                                405.50) rotate(270, 33.792, 33.792)"><svg xmlns="http://www.w3.org/2000/svg" id="Layer_1" data-name="Layer 1" viewBox="0 0 100 100" width="67.584" height="67.584"><path d="M50,100a50,50,0,1,1,50-50v50Z" fill="#2C0705"/></svg></g><g transform="translate(878.59,&#10;                                405.50) rotate(0, 33.792, 33.792)"><svg xmlns="http://www.w3.org/2000/svg" id="Layer_1" data-name="Layer 1" viewBox="0 0 100 100" width="67.584" height="67.584"><path d="M100,100A50,50,0,0,0,0,100Z" fill="#D0BDB0"/></svg></g><g transform="translate(811.01,&#10;                                473.09) rotate(180, 33.792, 33.792)"><svg xmlns="http://www.w3.org/2000/svg" id="Layer_1" data-name="Layer 1" viewBox="0 0 100 100" width="67.584" height="67.584"><path d="M50,0a50,50,0,0,0,0,100h50V50A50.005,50.005,0,0,0,50,0ZM75,75H50A25,25,0,1,1,75,50Z" fill="#1D2044FF"/></svg></g><g transform="translate(878.59,&#10;                                540.67) rotate(90, 33.792, 33.792)"><svg xmlns="http://www.w3.org/2000/svg" id="Layer_1" data-name="Layer 1" viewBox="0 0 100 100" width="67.584" height="67.584"><path d="M50,100a50,50,0,1,1,50-50v50Z" fill="#2C0705"/></svg></g><g transform="translate(1013.76,&#10;                                405.50) rotate(0, 33.792, 33.792)"><svg xmlns="http://www.w3.org/2000/svg" id="Layer_1" data-name="Layer 1" viewBox="0 0 100 100" width="67.584" height="67.584"><path d="M100,100A50,50,0,0,0,0,100Z" fill="#D0BDB0"/></svg></g><g transform="translate(1013.76,&#10;                                473.09) rotate(90, 33.792, 33.792)"><svg xmlns="http://www.w3.org/2000/svg" id="Layer_1" data-name="Layer 1" viewBox="0 0 100 100" width="67.584" height="67.584"><path d="M100,100A50,50,0,0,0,0,100Z" fill="#D0BDB0"/></svg></g><g transform="translate(1013.76,&#10;                                540.67) rotate(270, 33.792, 33.792)"><svg xmlns="http://www.w3.org/2000/svg" id="Layer_1" data-name="Layer 1" viewBox="0 0 100 100" width="67.584" height="67.584"><circle cx="50" cy="50" r="50" fill="#DEAD7F"/></svg></g></g></svg>